<?xml version="1.0" encoding="UTF-8"?>
<!DOCTYPE svg PUBLIC "-//W3C//DTD SVG 1.1//EN" "http://www.w3.org/Graphics/SVG/1.1/DTD/svg11.dtd">
<!-- Creator: CorelDRAW 2017 -->
<svg xmlns="http://www.w3.org/2000/svg" xml:space="preserve" width="8.4666mm" height="8.4666mm" version="1.1" style="shape-rendering:geometricPrecision; text-rendering:geometricPrecision; image-rendering:optimizeQuality; fill-rule:evenodd; clip-rule:evenodd"
viewBox="0 0 846.66 846.66"
 xmlns:xlink="http://www.w3.org/1999/xlink">
 <defs>
  <style type="text/css">
   <![CDATA[
    .fil1 {fill:none}
    .fil2 {fill:#1F1B20}
    .fil0 {fill:black}
   ]]>
  </style>
 </defs>
 <g id="Layer_x0020_1">
  <metadata id="CorelCorpID_0Corel-Layer"/>
  <g id="_901246000">
   <path class="fil0" d="M173.4 565.96c16.49,-53.81 48.11,-131.35 96.45,-167.74 61.94,-46.62 144.48,81.51 177.6,134.74 15.23,-10.92 36.57,-9.07 49.66,5.03 14.21,15.29 13.33,39.2 -1.96,53.41 -105.44,82.38 -121.3,-72.81 -190,-120.97 -22.16,27.52 -43.62,67.67 -56.17,95.53 0,20.87 -16.92,37.79 -37.79,37.79 -20.87,0 -37.79,-16.92 -37.79,-37.79z"/>
  </g>
  <path class="fil1" d="M211.19 565.96c0,-28.21 73.53,-141.98 86.93,-140.13 39.31,5.43 90.46,86.91 116.24,124.48 10.03,14.63 17.58,48.22 55.06,13.4"/>
  <g id="_901248848">
   <path class="fil0" d="M567.95 356.48c25.11,-2.53 44.28,-11.51 54.73,-36.27 27.69,-65.65 -64.18,-115.32 -103.98,-56.33 -23.57,34.94 -4.03,82.99 37.28,91.4l11.97 1.2zm0.6 5.72c-0.2,0.04 -0.39,0.06 -0.6,0.06 -0.2,0 -0.39,-0.02 -0.58,-0.06l-12.55 -1.26c-50.58,-10.3 -69.64,-73.25 -32.95,-109.94 55.28,-55.28 143.86,17.71 100.12,82.53 -13.83,20.5 -30.39,26.28 -53.44,28.67z"/>
  </g>
  <path class="fil2" d="M567.95 359.37c34.4,0 62.28,-27.88 62.28,-62.28 0,-34.4 -27.88,-62.29 -62.28,-62.29 -34.4,0 -62.28,27.89 -62.28,62.29 0,34.4 27.88,62.28 62.28,62.28z"/>
  <path class="fil0" d="M432.99 518.67l50.46 81.15c53.41,-33.3 125.15,-105.97 139.46,-160.05 20.82,-78.61 -66.91,-102.26 -84.44,-37.24 -17.3,64.16 -61.36,86.7 -105.48,116.14z"/>
  <path class="fil0" d="M612.47 386.68c1.41,-1.05 16.67,-14.05 17.76,-17.7 4.22,-14 -18.31,-37.37 -17.76,-59.7 -2.77,-15.31 3.7,-24.22 14.66,-21.72 27.66,6.31 54.36,86.14 43.98,103.42 -17.98,29.95 -38.79,55.07 -58.64,63.34l0 -67.64z"/>
 </g>
</svg>
