<?xml version="1.0" encoding="UTF-8"?>
<!DOCTYPE svg PUBLIC "-//W3C//DTD SVG 1.1//EN" "http://www.w3.org/Graphics/SVG/1.1/DTD/svg11.dtd">
<!-- Creator: CorelDRAW 2017 -->
<svg xmlns="http://www.w3.org/2000/svg" xml:space="preserve" width="8.4666mm" height="8.4666mm" version="1.1" style="shape-rendering:geometricPrecision; text-rendering:geometricPrecision; image-rendering:optimizeQuality; fill-rule:evenodd; clip-rule:evenodd"
viewBox="0 0 846.66 846.66"
 xmlns:xlink="http://www.w3.org/1999/xlink">
 <defs>
  <style type="text/css">
   <![CDATA[
    .fil1 {fill:none}
    .fil0 {fill:black}
   ]]>
  </style>
 </defs>
 <g id="Layer_x0020_1">
  <metadata id="CorelCorpID_0Corel-Layer"/>
  <g id="_2833409641584">
   <g>
    <path class="fil0" d="M65.24 734.25c37.99,23.83 94.71,-14.37 80.35,-65.42 -4.89,-17.39 -19.31,-45.29 8.88,-64.88 36.75,-25.54 68.72,40.23 118.72,-25.58 2.45,-3.4 2.12,-7.45 -0.74,-9.06 -2.85,-1.6 -7.14,-0.15 -9.59,3.24l-4.58 6.03c-36.74,46.24 -82.37,-27.77 -123.76,28.66 -19.45,26.51 -7.81,48.07 -2.11,68.3 11.72,41.58 -32.67,62.53 -56.87,47.43 -2.45,-2.1 -6.74,-1.27 -9.59,1.84 -2.84,3.11 -3.16,7.34 -0.71,9.44z"/>
   </g>
   <path class="fil1" d="M70.39 728.61c12.37,10.59 40.24,7.39 57.2,-8.97 12.3,-11.87 19.44,-30.29 7.95,-57.13 -9.37,-21.91 -4.73,-44.58 8.73,-57.64 40.15,-38.96 70.75,22.67 113.77,-16.97 2.07,-1.9 8.35,-10.16 9.99,-12.44"/>
  </g>
  <g id="_2833409705200">
   <g id="_2473634783264">
    <rect class="fil0" transform="matrix(0.666579 -0.671594 0.671594 0.666579 390.249 433.433)" width="364.47" height="18.52"/>
    <rect class="fil0" x="591.83" y="180.38" width="60.69" height="14.72"/>
    <rect class="fil0" x="638.29" y="180.37" width="15.04" height="59.87"/>
   </g>
   <polygon class="fil0" points="470.59,59.77 495.11,100.52 519.63,141.27 470.59,141.27 421.55,141.27 446.07,100.52 "/>
   <polygon class="fil0" points="740.7,312.59 765.22,353.35 789.74,394.1 740.7,394.1 691.67,394.1 716.19,353.35 "/>
   <circle class="fil0" cx="330.31" cy="501.87" r="52.32"/>
  </g>
 </g>
</svg>
