<?xml version="1.0" encoding="UTF-8"?>
<!DOCTYPE svg PUBLIC "-//W3C//DTD SVG 1.1//EN" "http://www.w3.org/Graphics/SVG/1.1/DTD/svg11.dtd">
<!-- Creator: CorelDRAW 2017 -->
<svg xmlns="http://www.w3.org/2000/svg" xml:space="preserve" width="8.4666mm" height="8.4666mm" version="1.1" style="shape-rendering:geometricPrecision; text-rendering:geometricPrecision; image-rendering:optimizeQuality; fill-rule:evenodd; clip-rule:evenodd"
viewBox="0 0 846.66 846.66"
 xmlns:xlink="http://www.w3.org/1999/xlink">
 <defs>
  <style type="text/css">
   <![CDATA[
    .fil0 {fill:black}
   ]]>
  </style>
 </defs>
 <g id="Layer_x0020_1">
  <metadata id="CorelCorpID_0Corel-Layer"/>
  <g id="_2833247352880">
   <path class="fil0" d="M423.95 675.97c139.86,0 253.24,-113.38 253.24,-253.25 0,-139.86 -113.38,-253.24 -253.24,-253.24 -139.87,0 -253.25,113.38 -253.25,253.24 0,139.87 113.38,253.25 253.25,253.25zm-0.19 -48.85c112.45,0 203.64,-91.19 203.64,-203.66 0,-112.45 -91.19,-203.64 -203.64,-203.64 -112.47,0 -203.66,91.19 -203.66,203.64 0,112.47 91.19,203.66 203.66,203.66z"/>
   <path class="fil0" d="M397.03 352.25l52.75 0 0 -279.42 -52.75 0 0 279.42zm376.37 99.72l0 -52.74 -279.42 0 0 52.74 279.42 0zm-420.58 -2.52l0 -52.75 -279.42 0 0 52.75 279.42 0zm44.21 324.26l52.75 0 0 -279.42 -52.75 0 0 279.42z"/>
  </g>
 </g>
</svg>
