<?xml version="1.0" encoding="UTF-8" standalone="no"?>
<!-- Creator: CorelDRAW 2017 -->

<svg
   xmlns:dc="http://purl.org/dc/elements/1.1/"
   xmlns:cc="http://creativecommons.org/ns#"
   xmlns:rdf="http://www.w3.org/1999/02/22-rdf-syntax-ns#"
   xmlns:svg="http://www.w3.org/2000/svg"
   xmlns="http://www.w3.org/2000/svg"
   xmlns:sodipodi="http://sodipodi.sourceforge.net/DTD/sodipodi-0.dtd"
   xmlns:inkscape="http://www.inkscape.org/namespaces/inkscape"
   xml:space="preserve"
   width="8.47mm"
   height="8.47mm"
   version="1.1"
   style="shape-rendering:geometricPrecision; text-rendering:geometricPrecision; image-rendering:optimizeQuality; fill-rule:evenodd; clip-rule:evenodd"
   viewBox="0 0 847 847"
   id="svg15"
   sodipodi:docname="dosrodkowanie.svg"
   inkscape:version="0.92.1 r15371"><metadata
     id="metadata19"><rdf:RDF><cc:Work
         rdf:about=""><dc:format>image/svg+xml</dc:format><dc:type
           rdf:resource="http://purl.org/dc/dcmitype/StillImage" /></cc:Work></rdf:RDF></metadata><sodipodi:namedview
     pagecolor="#ffffff"
     bordercolor="#666666"
     borderopacity="1"
     objecttolerance="10"
     gridtolerance="10"
     guidetolerance="10"
     inkscape:pageopacity="0"
     inkscape:pageshadow="2"
     inkscape:window-width="1920"
     inkscape:window-height="1051"
     id="namedview17"
     showgrid="false"
     inkscape:zoom="14.744195"
     inkscape:cx="15.655813"
     inkscape:cy="15.080431"
     inkscape:window-x="-9"
     inkscape:window-y="-9"
     inkscape:window-maximized="1"
     inkscape:current-layer="svg15" /><defs
     id="defs4"><style
       type="text/css"
       id="style2"><![CDATA[
    .fil1 {fill:none}
    .fil0 {fill:black}
   ]]></style></defs><path
     style="fill:#000000;stroke-width:0.03779528"
     d="M 19.525391 6.8085938 C 11.821071 7.0118025 4.7344544 12.847953 2.4882812 20.921875 C 2.4194938 21.267702 2.6447855 21.603088 2.9902344 21.671875 C 3.3356832 21.740662 3.671447 21.515371 3.7402344 21.169922 C 6.44751 10.658677 16.83889 4.8546644 27.132812 8.9316406 L 29.017578 9.7792969 L 28.1875 11.220703 L 29.539062 10.972656 L 30.888672 10.726562 L 30.425781 9.4335938 L 29.964844 8.140625 L 29.076172 9.6796875 L 27.279297 8.609375 C 24.729816 7.2998633 22.093497 6.7408575 19.525391 6.8085938 z M 3.1386719 22.068359 C 1.8793332 22.068359 0.85742188 23.088318 0.85742188 24.347656 C 0.85742188 25.606995 1.8793332 26.628906 3.1386719 26.628906 C 4.3980104 26.628906 5.4179688 25.606995 5.4179688 24.347656 C 5.4179688 23.088318 4.3980104 22.068359 3.1386719 22.068359 z "
     transform="scale(26.458332)"
     id="path7" /></svg>