<?xml version="1.0" encoding="UTF-8" standalone="no"?>
<!-- Creator: CorelDRAW 2017 -->

<svg
   xmlns:dc="http://purl.org/dc/elements/1.1/"
   xmlns:cc="http://creativecommons.org/ns#"
   xmlns:rdf="http://www.w3.org/1999/02/22-rdf-syntax-ns#"
   xmlns:svg="http://www.w3.org/2000/svg"
   xmlns="http://www.w3.org/2000/svg"
   xmlns:sodipodi="http://sodipodi.sourceforge.net/DTD/sodipodi-0.dtd"
   xmlns:inkscape="http://www.inkscape.org/namespaces/inkscape"
   xml:space="preserve"
   width="8.47mm"
   height="8.47mm"
   version="1.1"
   style="shape-rendering:geometricPrecision; text-rendering:geometricPrecision; image-rendering:optimizeQuality; fill-rule:evenodd; clip-rule:evenodd"
   viewBox="0 0 847 847"
   id="svg13"
   sodipodi:docname="drybling.svg"
   inkscape:version="0.92.1 r15371"><metadata
     id="metadata17"><rdf:RDF><cc:Work
         rdf:about=""><dc:format>image/svg+xml</dc:format><dc:type
           rdf:resource="http://purl.org/dc/dcmitype/StillImage" /></cc:Work></rdf:RDF></metadata><sodipodi:namedview
     pagecolor="#ffffff"
     bordercolor="#666666"
     borderopacity="1"
     objecttolerance="10"
     gridtolerance="10"
     guidetolerance="10"
     inkscape:pageopacity="0"
     inkscape:pageshadow="2"
     inkscape:window-width="1920"
     inkscape:window-height="1051"
     id="namedview15"
     showgrid="false"
     inkscape:zoom="7.3720974"
     inkscape:cx="16.0063"
     inkscape:cy="16.0063"
     inkscape:window-x="-9"
     inkscape:window-y="-9"
     inkscape:window-maximized="1"
     inkscape:current-layer="svg13" /><defs
     id="defs4"><style
       type="text/css"
       id="style2"><![CDATA[
    .fil0 {fill:black}
   ]]></style></defs><path
     style="fill:#000000;stroke-width:0.03779528"
     d="M 12.164062 0.69726562 L 8.3398438 10.378906 C 8.0295445 10.919001 8.0944882 10.385748 8 10.251953 C 7.9588031 10.194126 7.6535277 10.205961 7.5839844 10.208984 C 6.9701891 10.238087 7.0836548 10.131701 6.3398438 11.251953 C 6.0378595 11.708142 5.1002803 12.755196 4.3164062 13.248047 C 3.8571936 13.537181 3.1292156 13.971569 2.765625 14.21875 C 1.4065068 15.14549 1.0205299 16.285614 1.9707031 17.708984 C 1.9903567 17.738465 2.0388724 17.763742 2.0332031 17.800781 L 1.8554688 19.013672 L 3.1230469 18.982422 L 3.4082031 19.3125 L 3.3984375 20.541016 L 4.5175781 20.587891 L 11.142578 27.009766 L 11.146484 28.195312 L 12.244141 28.095703 L 12.458984 28.304688 L 12.402344 29.400391 L 13.527344 29.359375 L 13.839844 29.666016 L 13.914062 30.861328 L 14.976562 30.701172 C 18.077665 32.306715 18.641685 30.386213 17.916016 29.042969 C 11.908834 22.994213 13.851578 16.255529 12.931641 15.173828 C 12.814853 14.832537 12.411731 15.175077 12.412109 14.78125 L 17.660156 0.69726562 L 12.164062 0.69726562 z M 24.001953 15.412109 A 6.5703309 6.5703309 0 0 0 17.431641 21.982422 A 6.5703309 6.5703309 0 0 0 24.001953 28.552734 A 6.5703309 6.5703309 0 0 0 30.572266 21.982422 A 6.5703309 6.5703309 0 0 0 24.001953 15.412109 z "
     transform="scale(26.458332)"
     id="circle7" /></svg>