<?xml version="1.0" encoding="UTF-8" standalone="no"?>
<!-- Created with Inkscape (http://www.inkscape.org/) -->

<svg
   xmlns:dc="http://purl.org/dc/elements/1.1/"
   xmlns:cc="http://creativecommons.org/ns#"
   xmlns:rdf="http://www.w3.org/1999/02/22-rdf-syntax-ns#"
   xmlns:svg="http://www.w3.org/2000/svg"
   xmlns="http://www.w3.org/2000/svg"
   xmlns:sodipodi="http://sodipodi.sourceforge.net/DTD/sodipodi-0.dtd"
   xmlns:inkscape="http://www.inkscape.org/namespaces/inkscape"
   width="100"
   height="100"
   viewBox="0 0 26.458333 26.458334"
   version="1.1"
   id="svg8"
   inkscape:version="0.92.1 r15371"
   sodipodi:docname="fajny.svg">
  <defs
     id="defs2" />
  <sodipodi:namedview
     id="base"
     pagecolor="#ffffff"
     bordercolor="#666666"
     borderopacity="1.0"
     inkscape:pageopacity="0.0"
     inkscape:pageshadow="2"
     inkscape:zoom="1.979899"
     inkscape:cx="46.369062"
     inkscape:cy="31.018734"
     inkscape:document-units="mm"
     inkscape:current-layer="layer1"
     showgrid="false"
     inkscape:window-width="2400"
     inkscape:window-height="1321"
     inkscape:window-x="2391"
     inkscape:window-y="-9"
     inkscape:window-maximized="1"
     units="px" />
  <metadata
     id="metadata5">
    <rdf:RDF>
      <cc:Work
         rdf:about="">
        <dc:format>image/svg+xml</dc:format>
        <dc:type
           rdf:resource="http://purl.org/dc/dcmitype/StillImage" />
        <dc:title></dc:title>
      </cc:Work>
    </rdf:RDF>
  </metadata>
  <g
     inkscape:label="Layer 1"
     inkscape:groupmode="layer"
     id="layer1"
     transform="translate(0,-270.54165)">
    <path
       id="path4496"
       d="m 10.986764,287.34887 0.56582,1.41458 c -0.54795,0.21889 -1.094423,0.38566 -1.6274598,0.49734 l -0.311189,-1.49199 c 0.4466518,-0.0938 0.9082678,-0.23529 1.3728288,-0.41993 z m -4.5369718,1.82701 c 0.558385,0.16081 1.14655,0.2472 1.748102,0.25612 l 0.02382,-1.52474 c -0.467566,-0.007 -0.921698,-0.073 -1.350528,-0.19655 z M 18.45556,286.51504 c 0.439261,0.0864 0.868094,0.23676 1.274578,0.4467 l 0.699849,-1.35501 c -0.536039,-0.27545 -1.100381,-0.47352 -1.679583,-0.58669 z m -3.180496,-1.25076 0.455657,1.45326 c 0.466046,-0.14594 0.926179,-0.23824 1.369873,-0.27397 l -0.122118,-1.51878 c -0.556904,0.0446 -1.130155,0.15934 -1.703412,0.33949 z m -2.447903,1.14651 c -0.171247,0.1072 -0.339491,0.2055 -0.50478,0.2978 l 0.74154,1.33118 c 0.186115,-0.10425 0.376704,-0.21442 0.567299,-0.33354 0.262061,-0.16229 0.518169,-0.30676 0.769797,-0.43478 l -0.692373,-1.35797 c -0.285883,0.1459 -0.580726,0.3112 -0.881483,0.49731 z m 4.213827,-9.50126 c 0,0.62243 -0.148897,1.21207 -0.41396,1.73024 l -3.397863,6.65577 c 0,0 -3.4246808,-6.71091 -3.4380698,-6.7392 -0.239717,-0.4973 -0.373752,-1.05717 -0.373752,-1.64681 0,-2.10546 1.7064128,-3.81182 3.8118218,-3.81182 2.105415,0 3.811823,1.70641 3.811823,3.81182 z m -1.524728,0 c 0,-1.26267 -1.024428,-2.28709 -2.287095,-2.28709 -1.262667,0 -2.287095,1.02442 -2.287095,2.28709 0,1.26267 1.024428,2.28709 2.287095,2.28709 1.262667,0 2.287095,-1.02442 2.287095,-2.28709 z m 5.336551,3.81183 h -3.576586 l -0.778753,1.52472 h 3.256443 l 1.645322,4.93751 -0.5256,0.58073 c 0.559861,0.50626 0.850224,0.97229 0.851703,0.97382 l 0.160814,-0.0968 1.424998,4.27782 H 3.1457042 l 1.527731,-4.57867 c 0.0536,0.0372 0.0953,0.073 0.154856,0.11021 l 0.810012,-1.28949 c -0.181681,-0.11461 -0.33058,-0.22778 -0.461611,-0.33351 l 1.52773,-4.58162 h 3.25792 c -0.3231,-0.63133 -0.57773,-1.13015 -0.778758,-1.52472 h -3.578062 l -4.574189,13.72256 H 25.427 Z"
       inkscape:connector-curvature="0"
       style="stroke-width:0.04764778" />
  </g>
</svg>
