<?xml version="1.0" encoding="UTF-8" standalone="no"?>
<!-- Created with Inkscape (http://www.inkscape.org/) -->

<svg
   xmlns:dc="http://purl.org/dc/elements/1.1/"
   xmlns:cc="http://creativecommons.org/ns#"
   xmlns:rdf="http://www.w3.org/1999/02/22-rdf-syntax-ns#"
   xmlns:svg="http://www.w3.org/2000/svg"
   xmlns="http://www.w3.org/2000/svg"
   xmlns:sodipodi="http://sodipodi.sourceforge.net/DTD/sodipodi-0.dtd"
   xmlns:inkscape="http://www.inkscape.org/namespaces/inkscape"
   width="100"
   height="100"
   viewBox="0 0 26.458333 26.458334"
   version="1.1"
   id="svg8"
   inkscape:version="0.92.1 r15371"
   sodipodi:docname="fajny1.svg">
  <defs
     id="defs2" />
  <sodipodi:namedview
     id="base"
     pagecolor="#ffffff"
     bordercolor="#666666"
     borderopacity="1.0"
     inkscape:pageopacity="0.0"
     inkscape:pageshadow="2"
     inkscape:zoom="1.979899"
     inkscape:cx="46.369062"
     inkscape:cy="31.018734"
     inkscape:document-units="mm"
     inkscape:current-layer="layer1"
     showgrid="false"
     inkscape:window-width="2400"
     inkscape:window-height="1321"
     inkscape:window-x="2391"
     inkscape:window-y="-9"
     inkscape:window-maximized="1"
     units="px" />
  <metadata
     id="metadata5">
    <rdf:RDF>
      <cc:Work
         rdf:about="">
        <dc:format>image/svg+xml</dc:format>
        <dc:type
           rdf:resource="http://purl.org/dc/dcmitype/StillImage" />
        <dc:title></dc:title>
      </cc:Work>
    </rdf:RDF>
  </metadata>
  <g
     inkscape:label="Layer 1"
     inkscape:groupmode="layer"
     id="layer1"
     transform="translate(0,-270.54165)">
    <path
       style="stroke-width:0.03343902"
       d="m 12.746065,296.56563 c -0.753214,-0.16863 -1.378456,-0.66505 -1.675857,-1.33058 -0.09635,-0.21563 -0.100536,-0.21968 -0.228028,-0.22055 -0.437445,-0.003 -0.823139,-0.3795 -0.823139,-0.80344 0,-0.30915 0.268251,-0.67697 0.555621,-0.76188 0.10271,-0.0304 0.776163,-0.0407 2.654524,-0.0407 1.878369,0 2.551807,0.0102 2.654525,0.0407 0.18367,0.0543 0.460687,0.33129 0.514958,0.51497 0.154524,0.52297 -0.234842,1.04576 -0.782471,1.05059 -0.128408,8.9e-4 -0.131114,0.003 -0.240027,0.24243 -0.273854,0.59986 -0.867238,1.0954 -1.528364,1.27635 -0.293123,0.0802 -0.818507,0.0956 -1.101742,0.0322 z m -2.192001,-4.00336 c -0.164125,-0.0519 -0.444029,-0.34159 -0.494354,-0.51191 -0.09264,-0.31354 -0.02735,-0.56348 0.208989,-0.79978 0.106055,-0.10617 0.219252,-0.18338 0.305963,-0.20901 0.197595,-0.0584 5.111451,-0.0584 5.309049,0 0.18367,0.0543 0.460687,0.33129 0.514958,0.51495 0.02237,0.0758 0.04054,0.19609 0.04036,0.26752 -7.56e-4,0.29236 -0.277568,0.65749 -0.563404,0.74314 -0.177792,0.0533 -5.151526,0.0487 -5.321541,-0.006 z m -0.535672,-2.52273 c -0.0018,-0.54103 -0.2212048,-1.49373 -0.5245738,-2.28222 -0.236259,-0.61406 -0.418727,-1.01141 -1.205412,-2.62496 -1.008584,-2.06869 -1.321316,-2.93747 -1.444515,-4.01292 -0.07287,-0.63602 -0.01461,-1.38598 0.164375,-2.11471 0.53986,-2.19868 2.253364,-3.97293 4.4461048,-4.60377 0.620993,-0.17866 1.036156,-0.23321 1.774815,-0.23321 0.738667,0 1.153823,0.0546 1.774823,0.23321 1.463365,0.421 2.747032,1.36542 3.58292,2.636 0.24989,0.37985 0.591085,1.07745 0.722765,1.47772 0.482398,1.46649 0.438042,2.83308 -0.142277,4.38432 -0.236445,0.63203 -0.321177,0.81772 -1.072415,2.35039 -0.392135,0.80005 -0.805278,1.6706 -0.918097,1.93458 -0.411984,0.96403 -0.641945,1.79454 -0.711968,2.57134 l -0.03991,0.44306 h -3.202984 -3.202972 l -6.33e-4,-0.15883 z m -5.1303578,-4.66168 c -0.222157,-0.38476 -0.376661,-0.68663 -0.359975,-0.70332 0.01604,-0.016 0.339386,-0.20796 0.718462,-0.42639 l 0.689215,-0.39719 0.106494,0.25615 c 0.05862,0.14086 0.204268,0.47119 0.323761,0.73401 0.119502,0.26284 0.211609,0.48329 0.204687,0.48995 -0.0335,0.0322 -1.243899,0.72087 -1.266928,0.72087 -0.01461,0 -0.201649,-0.30335 -0.415716,-0.67408 z m 15.7646148,0.40261 c -0.248287,-0.146 -0.530523,-0.31035 -0.627192,-0.36523 l -0.175769,-0.0998 0.112717,-0.22532 c 0.104046,-0.20792 0.38042,-0.82495 0.501233,-1.11903 l 0.05121,-0.12461 0.693117,0.39943 c 0.381214,0.21967 0.706266,0.41257 0.722346,0.42864 0.03607,0.036 -0.733436,1.37862 -0.787708,1.3744 -0.02121,-10e-4 -0.241668,-0.12244 -0.489954,-0.26846 z M 3.5987452,280.56793 v -0.80252 h 0.839371 0.839371 l -0.02851,0.24242 c -0.01568,0.13333 -0.02851,0.38539 -0.02851,0.5601 0,0.17472 0.01283,0.42678 0.02851,0.5601 l 0.02851,0.24245 h -0.839371 -0.839371 z m 17.6106108,0.5601 c 0.01568,-0.13332 0.02851,-0.38538 0.02851,-0.5601 0,-0.17471 -0.01288,-0.42676 -0.02851,-0.5601 l -0.02851,-0.24242 h 0.83937 0.839372 v 0.80252 0.80255 h -0.839373 -0.83937 z M 5.2205432,276.86972 c -0.367832,-0.21263 -0.680778,-0.39817 -0.695451,-0.41231 -0.03109,-0.03 0.73538,-1.37347 0.783612,-1.37347 0.02583,0 1.339676,0.74493 1.398607,0.79298 0.0089,0.008 -8.9e-4,0.0383 -0.02111,0.0697 -0.301088,0.4698 -0.473258,0.75876 -0.600902,1.00848 -0.08499,0.16636 -0.16393,0.30223 -0.175315,0.30191 -0.01141,-2.5e-4 -0.321641,-0.17455 -0.689473,-0.38718 z m 15.1629478,0.0961 c -0.08178,-0.16149 -0.257855,-0.46439 -0.391219,-0.67311 -0.133359,-0.20873 -0.242005,-0.38929 -0.241434,-0.40127 8.9e-4,-0.025 1.315524,-0.78574 1.383942,-0.80095 0.05488,-0.0114 0.838232,1.32856 0.798499,1.36675 -0.03207,0.0308 -1.294055,0.76113 -1.356961,0.78527 -0.02895,0.0114 -0.0952,-0.0839 -0.192827,-0.27669 z M 8.5008962,273.97203 c -0.203822,-0.31705 -0.755932,-1.3134 -0.744047,-1.34274 0.008,-0.0201 0.312553,-0.20761 0.676412,-0.41657 0.623995,-0.35841 0.664165,-0.37647 0.70722,-0.31769 0.06076,0.0829 0.738025,1.25969 0.764127,1.3277 0.01542,0.0403 -0.02779,0.076 -0.174994,0.14512 -0.252251,0.11837 -0.687165,0.36867 -0.943255,0.54257 -0.110842,0.0753 -0.209525,0.13681 -0.219306,0.13681 -0.0098,0 -0.03956,-0.0338 -0.06619,-0.0753 z m 9.2425538,-0.0131 c -0.190155,-0.13666 -0.831869,-0.51334 -1.025027,-0.6017 -0.09832,-0.045 -0.178773,-0.0912 -0.178773,-0.10248 0,-0.0244 0.715915,-1.27504 0.780495,-1.36335 0.04107,-0.0562 0.09119,-0.0332 0.718613,0.33113 0.370932,0.21536 0.674426,0.40383 0.674426,0.41882 0,0.0491 -0.784939,1.38345 -0.819256,1.39271 -0.01836,0.006 -0.08607,-0.0287 -0.150478,-0.0752 z m -5.316798,-2.18424 v -0.838 h 0.802534 0.802534 v 0.838 0.838 l -0.242425,-0.0271 c -0.31021,-0.0346 -0.810008,-0.0346 -1.12021,0 l -0.242433,0.0271 z"
       id="path4536"
       inkscape:connector-curvature="0" />
  </g>
</svg>
