<?xml version="1.0" encoding="UTF-8"?>
<!DOCTYPE svg PUBLIC "-//W3C//DTD SVG 1.1//EN" "http://www.w3.org/Graphics/SVG/1.1/DTD/svg11.dtd">
<!-- Creator: CorelDRAW 2017 -->
<svg xmlns="http://www.w3.org/2000/svg" xml:space="preserve" width="8.4666mm" height="8.4666mm" version="1.1" style="shape-rendering:geometricPrecision; text-rendering:geometricPrecision; image-rendering:optimizeQuality; fill-rule:evenodd; clip-rule:evenodd"
viewBox="0 0 846.66 846.66"
 xmlns:xlink="http://www.w3.org/1999/xlink">
 <defs>
  <style type="text/css">
   <![CDATA[
    .fil0 {fill:black}
   ]]>
  </style>
 </defs>
 <g id="Warstwa_x0020_1">
  <metadata id="CorelCorpID_0Corel-Layer"/>
  <g id="_897778048">
   <path class="fil0" d="M622.75 397.87c27.98,0 50.65,-22.68 50.65,-50.65 0,-27.97 -22.67,-50.64 -50.65,-50.64 -27.97,0 -50.64,22.67 -50.64,50.64 0,27.97 22.67,50.65 50.64,50.65z"/>
   <path class="fil0" d="M523.97 361.9l0 0c10.73,-1.89 29.14,5.91 29.76,16.78 3.54,62.16 10.53,103.88 18.4,140.37 2.3,10.64 -2.74,25.68 -13.47,27.58 -10.79,1.9 -20.16,-7.42 -23.02,-17.77 -22.54,-81.57 -21.71,-136.29 -18,-141.99 5.95,-9.12 -4.39,-23.08 6.33,-24.97z"/>
   <path class="fil0" d="M386.74 378.91c33.02,-28.62 111.28,-43.23 154.88,-39.2 22.84,2.12 19.96,26.06 27.09,35.42 5.32,11.06 2.78,18.08 -3.38,26.65 -14.41,20.06 -52.79,23.88 -114.01,40.89 -77.15,36.01 -151.92,87.73 -239.31,106.69 -44.67,6.79 -56.6,-45.44 -3.3,-57.83 50.91,-11.83 96.45,-38.28 143.1,-63.72 27.76,-15.14 10,-27.3 34.93,-48.9z"/>
  </g>
 </g>
</svg>
