<?xml version="1.0" encoding="UTF-8"?>
<!DOCTYPE svg PUBLIC "-//W3C//DTD SVG 1.1//EN" "http://www.w3.org/Graphics/SVG/1.1/DTD/svg11.dtd">
<!-- Creator: CorelDRAW 2017 -->
<svg xmlns="http://www.w3.org/2000/svg" xml:space="preserve" width="8.4666mm" height="8.4666mm" version="1.1" style="shape-rendering:geometricPrecision; text-rendering:geometricPrecision; image-rendering:optimizeQuality; fill-rule:evenodd; clip-rule:evenodd"
viewBox="0 0 846.66 846.66"
 xmlns:xlink="http://www.w3.org/1999/xlink">
 <defs>
  <style type="text/css">
   <![CDATA[
    .fil0 {fill:black}
   ]]>
  </style>
 </defs>
 <g id="Warstwa_x0020_1">
  <metadata id="CorelCorpID_0Corel-Layer"/>
  <path class="fil0" d="M349.71 240.81c30.8,0 55.78,-26.31 55.78,-58.77 0,-32.46 -24.98,-58.77 -55.78,-58.77 -30.81,0 -55.79,26.31 -55.79,58.77 0,32.46 24.98,58.77 55.79,58.77zm116.27 309.92c-0.01,-2.13 -0.27,-4.28 -0.8,-6.43l-26 -106.86c-2.98,-20.64 -5.19,-41.32 -8.78,-61.75 32.51,4.03 75.06,3.03 114.95,-10.83 9.9,-3.44 14.91,-10.88 14.77,-20.14 -0.15,-9.2 -14.05,-16.89 -24.51,-14.96 -32.34,5.95 -67.96,8.96 -116.43,0.71 -5.77,-16.83 -13.67,-33.34 -24.99,-49.36 -13.42,-19.01 -36.98,-37.69 -57.67,-32.82 -21.81,5.12 -34.05,38.05 -23.82,57.98 23.56,45.88 32.69,92.48 32.59,131.74 -0.04,15.36 7.66,41.14 24.97,43.95l12.56 50.95 0 0 -85.54 74.16c-12.82,11.12 -14.21,30.7 -3.09,43.52l1.28 1.48c11.12,12.82 30.7,14.22 43.52,3.1l34.44 -29.86 -20.88 55.57c-5.97,15.89 2.14,33.77 18.03,39.74l1.83 0.69c15.89,5.97 33.77,-2.15 39.73,-18.03l52.05 -138.51c1.74,-4.63 2.28,-9.42 1.79,-14.04zm0.64 -229.36c27.85,0 50.43,-22.58 50.43,-50.43 0,-27.86 -22.58,-50.44 -50.43,-50.44 -27.85,0 -50.43,22.58 -50.43,50.44 0,27.85 22.58,50.43 50.43,50.43z"/>
 </g>
</svg>
