<?xml version="1.0" encoding="UTF-8"?>
<!DOCTYPE svg PUBLIC "-//W3C//DTD SVG 1.1//EN" "http://www.w3.org/Graphics/SVG/1.1/DTD/svg11.dtd">
<!-- Creator: CorelDRAW 2017 -->
<svg xmlns="http://www.w3.org/2000/svg" xml:space="preserve" width="8.4666mm" height="8.4666mm" version="1.1" style="shape-rendering:geometricPrecision; text-rendering:geometricPrecision; image-rendering:optimizeQuality; fill-rule:evenodd; clip-rule:evenodd"
viewBox="0 0 846.66 846.66"
 xmlns:xlink="http://www.w3.org/1999/xlink">
 <defs>
  <style type="text/css">
   <![CDATA[
    .fil0 {fill:black}
   ]]>
  </style>
 </defs>
 <g id="Warstwa_x0020_1">
  <metadata id="CorelCorpID_0Corel-Layer"/>
  <path class="fil0" d="M331.73 323.61c-17.07,56.22 -17.18,88.14 -16.9,127.81 0.09,12.94 -11.18,27.96 -21.44,26.2 -10.33,-1.77 -12.12,-6.59 -14.01,-19.17 -8.31,-55.34 -0.36,-213.48 80.38,-215.6 15.2,-0.4 4.52,7.15 18.31,11.06 20.09,5.7 38.91,5.9 50.9,1.81 9.64,-3.3 12.26,-10.41 16.12,-10.65 15.9,-1.02 28.04,0.87 42.72,8.56 11.59,6.05 21.82,18.03 30.68,33.28 26.29,45.28 49.59,127.76 51.46,161.37 1.82,32.72 -36.26,25.62 -41.86,-3.89 -7.73,-40.72 -14.62,-66.03 -44.94,-119.43 -6.06,28.57 -25.17,84.05 1.31,103.61l33.85 25.83c7.05,5.37 12.61,12.1 14.41,20.43l0.03 0.13 0.01 0.03c0.47,2.07 0.73,4.23 0.72,6.44l-0.72 146.85 -1.06 14.46c-0.03,0.45 0.62,0.71 0.96,1.1 7.41,8.43 11.9,19.48 11.9,31.58 0,26.43 -21.43,47.86 -47.86,47.86 -26.43,0 -47.86,-24.56 -47.86,-47.86 0,-23.29 8.83,-31.33 26.47,-38.39l-1.24 -117.66 -50.67 -36.34c-7.39,-4.09 -19.22,-3.99 -25.94,0.54l-2.77 190.62c-0.36,24.33 -10.74,49.09 -28.02,49.09 -23.09,0.01 -33.37,-24.23 -33.43,-44.23 -0.38,-117.32 5.48,-239.88 -1.51,-355.44z"/>
  <ellipse class="fil0" cx="405.52" cy="179.05" rx="52.94" ry="55.77"/>
 </g>
</svg>
