<?xml version="1.0" encoding="UTF-8" standalone="no"?>
<!-- Creator: CorelDRAW 2017 -->

<svg
   xmlns:dc="http://purl.org/dc/elements/1.1/"
   xmlns:cc="http://creativecommons.org/ns#"
   xmlns:rdf="http://www.w3.org/1999/02/22-rdf-syntax-ns#"
   xmlns:svg="http://www.w3.org/2000/svg"
   xmlns="http://www.w3.org/2000/svg"
   xmlns:sodipodi="http://sodipodi.sourceforge.net/DTD/sodipodi-0.dtd"
   xmlns:inkscape="http://www.inkscape.org/namespaces/inkscape"
   xml:space="preserve"
   width="8.47mm"
   height="8.47mm"
   version="1.1"
   style="shape-rendering:geometricPrecision; text-rendering:geometricPrecision; image-rendering:optimizeQuality; fill-rule:evenodd; clip-rule:evenodd"
   viewBox="0 0 847 847"
   id="svg43"
   sodipodi:docname="rzut_wolny.svg"
   inkscape:version="0.92.1 r15371"><metadata
     id="metadata47"><rdf:RDF><cc:Work
         rdf:about=""><dc:format>image/svg+xml</dc:format><dc:type
           rdf:resource="http://purl.org/dc/dcmitype/StillImage" /></cc:Work></rdf:RDF></metadata><sodipodi:namedview
     pagecolor="#ffffff"
     bordercolor="#666666"
     borderopacity="1"
     objecttolerance="10"
     gridtolerance="10"
     guidetolerance="10"
     inkscape:pageopacity="0"
     inkscape:pageshadow="2"
     inkscape:window-width="1920"
     inkscape:window-height="1051"
     id="namedview45"
     showgrid="false"
     inkscape:zoom="7.3720974"
     inkscape:cx="16.0063"
     inkscape:cy="16.0063"
     inkscape:window-x="-9"
     inkscape:window-y="-9"
     inkscape:window-maximized="1"
     inkscape:current-layer="svg43" /><defs
     id="defs4"><style
       type="text/css"
       id="style2"><![CDATA[
    .fil0 {fill:black}
   ]]></style></defs><path
     style="fill:#000000;stroke-width:0.03779528"
     d="M 4.8925781 1.9609375 A 1.760882 1.760882 0 0 0 3.1308594 3.7226562 A 1.760882 1.760882 0 0 0 4.8925781 5.4824219 A 1.760882 1.760882 0 0 0 6.6523438 3.7226562 A 1.760882 1.760882 0 0 0 4.8925781 1.9609375 z M 12.330078 1.9609375 A 1.760882 1.760882 0 0 0 10.568359 3.7226562 A 1.760882 1.760882 0 0 0 12.330078 5.4824219 A 1.760882 1.760882 0 0 0 14.091797 3.7226562 A 1.760882 1.760882 0 0 0 12.330078 1.9609375 z M 19.880859 1.9609375 A 1.760882 1.760882 0 0 0 18.121094 3.7226562 A 1.760882 1.760882 0 0 0 19.880859 5.4824219 A 1.760882 1.760882 0 0 0 21.642578 3.7226562 A 1.760882 1.760882 0 0 0 19.880859 1.9609375 z M 27.349609 1.9609375 A 1.760882 1.760882 0 0 0 25.589844 3.7226562 A 1.760882 1.760882 0 0 0 27.349609 5.4824219 A 1.760882 1.760882 0 0 0 29.111328 3.7226562 A 1.760882 1.760882 0 0 0 27.349609 1.9609375 z M 5.640625 5.8691406 C 5.3348612 5.9477548 5.0983524 6.1699852 4.78125 6.171875 L 4.7792969 6.171875 C 4.5203992 6.1703632 4.1207827 5.952985 3.8085938 5.8789062 C 3.6181056 5.8335519 2.2482082 6.0511113 2.1015625 6.1308594 C 0.91970418 6.773757 0.77929023 7.7834002 0.74414062 8.8261719 L 0.79101562 10.199219 C 0.83953302 11.25972 0.97873249 12.758515 2.1503906 13.498047 L 2.1503906 20.775391 C 2.1503906 21.640525 2.7250568 22.349609 3.4257812 22.349609 L 3.5058594 22.349609 C 4.2065838 22.349609 4.7792969 21.640525 4.7792969 20.775391 C 4.7792969 21.640525 5.3523879 22.349609 6.0527344 22.349609 L 6.1347656 22.349609 C 6.8354901 22.349609 7.4082031 21.640525 7.4082031 20.775391 L 7.4082031 13.517578 C 7.9935668 13.16195 8.3245512 12.626187 8.5078125 12.037109 C 8.6957786 12.61533 9.0237215 13.143589 9.5898438 13.5 L 9.5898438 20.775391 C 9.5898438 21.640525 10.162557 22.349609 10.863281 22.349609 L 10.943359 22.349609 C 11.643706 22.349609 12.216797 21.640525 12.216797 20.775391 C 12.216797 21.640525 12.791841 22.349609 13.492188 22.349609 L 13.572266 22.349609 C 14.27299 22.349609 14.847656 21.640525 14.847656 20.775391 L 14.847656 13.515625 C 15.496233 13.120706 15.829307 12.502024 16 11.839844 C 16.176831 12.492155 16.510649 13.10331 17.140625 13.5 L 17.140625 20.775391 C 17.140625 21.640525 17.713338 22.349609 18.414062 22.349609 L 18.496094 22.349609 C 19.19644 22.349609 19.767578 21.640525 19.767578 20.775391 C 19.767578 21.640525 20.342244 22.349609 21.042969 22.349609 L 21.123047 22.349609 C 21.823771 22.349609 22.398437 21.640525 22.398438 20.775391 L 22.398438 13.515625 C 22.999563 13.149495 23.331691 12.592585 23.511719 11.984375 C 23.696865 12.582092 24.027171 13.130786 24.609375 13.498047 L 24.609375 20.775391 C 24.609375 21.640525 25.18171 22.349609 25.882812 22.349609 L 25.964844 22.349609 C 26.66519 22.349609 27.238281 21.640525 27.238281 20.775391 C 27.238281 21.640525 27.810994 22.349609 28.511719 22.349609 L 28.59375 22.349609 C 29.294474 22.349609 29.867188 21.640525 29.867188 20.775391 L 29.867188 13.515625 C 31.066922 12.784957 31.179505 11.270492 31.228516 10.199219 L 31.273438 8.8261719 C 31.238288 7.7834002 31.097874 6.773757 29.916016 6.1308594 C 29.750094 6.0409066 28.319578 5.8120698 28.099609 5.8691406 C 27.793846 5.9477548 27.555384 6.1699852 27.238281 6.171875 L 27.236328 6.171875 C 26.977053 6.1703632 26.578192 5.952985 26.265625 5.8789062 C 26.075515 5.8335519 24.706815 6.0511113 24.560547 6.1308594 C 24.014647 6.4276239 23.697689 6.8044842 23.503906 7.2246094 C 23.310152 6.8042624 22.99145 6.4277528 22.445312 6.1308594 C 22.280147 6.0409066 20.848875 5.8120698 20.628906 5.8691406 C 20.323142 5.9477548 20.086634 6.1699852 19.769531 6.171875 L 19.767578 6.171875 C 19.50868 6.1703632 19.109442 5.952985 18.796875 5.8789062 C 18.606765 5.8335519 17.236489 6.0511113 17.089844 6.1308594 C 16.508149 6.4472852 16.180789 6.852431 15.992188 7.3066406 C 15.803484 6.8527542 15.477839 6.4471 14.896484 6.1308594 C 14.730941 6.0409066 13.298094 5.8120698 13.078125 5.8691406 C 12.773117 5.9477548 12.535096 6.1699852 12.21875 6.171875 L 12.216797 6.171875 C 11.957899 6.1703632 11.557905 5.952985 11.246094 5.8789062 C 11.055606 5.8335519 9.6857082 6.0511113 9.5390625 6.1308594 C 9.0069532 6.4203119 8.6933012 6.7857836 8.4980469 7.1933594 C 8.3027177 6.7859747 7.9892755 6.4202002 7.4570312 6.1308594 C 7.2918659 6.0409066 5.8602156 5.8120698 5.640625 5.8691406 z M 15.947266 24.460938 A 2.7938268 2.7938268 0 0 0 13.154297 27.253906 A 2.7938268 2.7938268 0 0 0 15.947266 30.046875 A 2.7938268 2.7938268 0 0 0 18.740234 27.253906 A 2.7938268 2.7938268 0 0 0 15.947266 24.460938 z "
     transform="scale(26.458332)"
     id="circle7" /></svg>