<?xml version="1.0" encoding="UTF-8"?>
<!DOCTYPE svg PUBLIC "-//W3C//DTD SVG 1.1//EN" "http://www.w3.org/Graphics/SVG/1.1/DTD/svg11.dtd">
<!-- Creator: CorelDRAW 2017 -->
<svg xmlns="http://www.w3.org/2000/svg" xml:space="preserve" width="8.4666mm" height="8.4666mm" version="1.1" style="shape-rendering:geometricPrecision; text-rendering:geometricPrecision; image-rendering:optimizeQuality; fill-rule:evenodd; clip-rule:evenodd"
viewBox="0 0 846.66 846.66"
 xmlns:xlink="http://www.w3.org/1999/xlink">
 <defs>
  <style type="text/css">
   <![CDATA[
    .fil0 {fill:black}
   ]]>
  </style>
 </defs>
 <g id="Warstwa_x0020_1">
  <metadata id="CorelCorpID_0Corel-Layer"/>
  <g id="_902710400">
   <circle class="fil0" cx="422.19" cy="644.38" r="54.91"/>
   <path class="fil0" d="M669.13 547.98l1.6 0c13.77,0 25.03,-13.92 25.03,-30.92l0 -148.28c0,-17.01 -11.26,-30.92 -25.03,-30.92l-1.6 0c-13.77,0 -25.03,13.91 -25.03,30.92l0 148.28c0,17 11.26,30.92 25.03,30.92z"/>
   <path class="fil0" d="M617.47 547.98l1.59 0c13.77,0 25.04,-13.92 25.04,-30.92l0 -148.28c0,-17.01 -11.27,-30.92 -25.04,-30.92l-1.59 0c-13.78,0 -25.04,13.91 -25.04,30.92l0 148.28c0,17 11.26,30.92 25.04,30.92z"/>
   <circle class="fil0" cx="646.3" cy="181.89" r="34.61"/>
   <path class="fil0" d="M599.59 378.03c-29.93,-12.44 -32.85,-45.97 -33.91,-68.86l-0.89 -26.99c0.69,-20.49 3.44,-40.33 26.68,-52.96 2.88,-1.57 29.79,-5.82 33.53,-4.93 6.14,1.46 13.98,5.7 19.07,5.73l0.05 0c6.23,-0.04 10.89,-4.38 16.9,-5.93 4.32,-1.12 32.45,3.36 35.71,5.13 23.23,12.63 25.98,32.47 26.67,52.96l-0.89 26.99c-1.05,22.89 -3.21,56.35 -33.14,68.79l-44.1 4.05 0 0.21 -1.17 -0.11 -1.17 0.11 0 -0.21 -43.34 -3.98z"/>
   <path class="fil0" d="M522.33 547.98l1.59 0c13.77,0 25.04,-13.92 25.04,-30.92l0 -148.28c0,-17.01 -11.27,-30.92 -25.04,-30.92l-1.59 0c-13.77,0 -25.04,13.91 -25.04,30.92l0 148.28c0,17 11.27,30.92 25.04,30.92z"/>
   <path class="fil0" d="M470.66 547.98l1.6 0c13.77,0 25.03,-13.92 25.03,-30.92l0 -148.28c0,-17.01 -11.26,-30.92 -25.03,-30.92l-1.6 0c-13.77,0 -25.03,13.91 -25.03,30.92l0 148.28c0,17 11.26,30.92 25.03,30.92z"/>
   <circle class="fil0" cx="499.5" cy="181.89" r="34.61"/>
   <path class="fil0" d="M452.79 378.03c-29.93,-12.44 -32.86,-45.97 -33.91,-68.86l-0.89 -26.99c0.69,-20.49 3.44,-40.33 26.67,-52.96 2.88,-1.57 29.8,-5.82 33.54,-4.93 6.14,1.46 13.98,5.7 19.07,5.73l0.05 0c6.23,-0.04 10.89,-4.38 16.9,-5.93 4.32,-1.12 32.45,3.36 35.7,5.13 23.24,12.63 25.99,32.47 26.68,52.96l-0.89 26.99c-1.06,22.89 -3.21,56.35 -33.14,68.79l-44.11 4.05 0 0.21 -1.17 -0.11 -1.17 0.11 0 -0.21 -43.33 -3.98z"/>
   <path class="fil0" d="M373.93 547.98l1.59 0c13.77,0 25.04,-13.92 25.04,-30.92l0 -148.28c0,-17.01 -11.27,-30.92 -25.04,-30.92l-1.59 0c-13.77,0 -25.04,13.91 -25.04,30.92l0 148.28c0,17 11.27,30.92 25.04,30.92z"/>
   <path class="fil0" d="M322.26 547.98l1.59 0c13.77,0 25.04,-13.92 25.04,-30.92l0 -148.28c0,-17.01 -11.27,-30.92 -25.04,-30.92l-1.59 0c-13.77,0 -25.04,13.91 -25.04,30.92l0 148.28c0,17 11.27,30.92 25.04,30.92z"/>
   <circle class="fil0" cx="351.09" cy="181.89" r="34.61"/>
   <path class="fil0" d="M304.38 378.03c-29.93,-12.44 -32.85,-45.97 -33.91,-68.86l-0.88 -26.99c0.68,-20.49 3.44,-40.33 26.67,-52.96 2.88,-1.57 29.8,-5.82 33.54,-4.93 6.13,1.46 13.97,5.7 19.06,5.73l0.06 0c6.22,-0.04 10.89,-4.38 16.89,-5.93 4.32,-1.12 32.46,3.36 35.71,5.13 23.23,12.63 25.99,32.47 26.67,52.96l-0.88 26.99c-1.06,22.89 -3.21,56.35 -33.15,68.79l-44.1 4.05 0 0.21 -1.17 -0.11 -1.17 0.11 0 -0.21 -43.34 -3.98z"/>
   <path class="fil0" d="M227.74 547.98l1.59 0c13.77,0 25.04,-13.92 25.04,-30.92l0 -148.28c0,-17.01 -11.27,-30.92 -25.04,-30.92l-1.59 0c-13.77,0 -25.04,13.91 -25.04,30.92l0 148.28c0,17 11.27,30.92 25.04,30.92z"/>
   <path class="fil0" d="M176.07 547.98l1.6 0c13.77,0 25.03,-13.92 25.03,-30.92l0 -148.28c0,-17.01 -11.26,-30.92 -25.03,-30.92l-1.6 0c-13.77,0 -25.04,13.91 -25.04,30.92l0 148.28c0,17 11.27,30.92 25.04,30.92z"/>
   <circle class="fil0" cx="204.91" cy="181.89" r="34.61"/>
   <path class="fil0" d="M158.2 378.03c-29.93,-12.44 -32.86,-45.97 -33.91,-68.86l-0.89 -26.99c0.69,-20.49 3.44,-40.33 26.67,-52.96 2.88,-1.57 29.8,-5.82 33.54,-4.93 6.14,1.46 13.98,5.7 19.07,5.73l0.05 0c6.23,-0.04 10.89,-4.38 16.9,-5.93 4.32,-1.12 32.45,3.36 35.7,5.13 23.24,12.63 25.99,32.47 26.68,52.96l-0.89 26.99c-1.06,22.89 -3.21,56.35 -33.14,68.79l-44.11 4.05 0 0.21 -1.17 -0.11 -1.17 0.11 0 -0.21 -43.33 -3.98z"/>
  </g>
 </g>
</svg>
