<?xml version="1.0" encoding="UTF-8" standalone="no"?>
<!-- Creator: CorelDRAW 2017 -->

<svg
   xmlns:dc="http://purl.org/dc/elements/1.1/"
   xmlns:cc="http://creativecommons.org/ns#"
   xmlns:rdf="http://www.w3.org/1999/02/22-rdf-syntax-ns#"
   xmlns:svg="http://www.w3.org/2000/svg"
   xmlns="http://www.w3.org/2000/svg"
   xmlns:sodipodi="http://sodipodi.sourceforge.net/DTD/sodipodi-0.dtd"
   xmlns:inkscape="http://www.inkscape.org/namespaces/inkscape"
   xml:space="preserve"
   width="8.4666mm"
   height="8.4666mm"
   version="1.1"
   style="shape-rendering:geometricPrecision; text-rendering:geometricPrecision; image-rendering:optimizeQuality; fill-rule:evenodd; clip-rule:evenodd"
   viewBox="0 0 846.66 846.66"
   id="svg12"
   sodipodi:docname="rzut_karny.svg"
   inkscape:version="0.92.1 r15371"><metadata
     id="metadata16"><rdf:RDF><cc:Work
         rdf:about=""><dc:format>image/svg+xml</dc:format><dc:type
           rdf:resource="http://purl.org/dc/dcmitype/StillImage" /></cc:Work></rdf:RDF></metadata><sodipodi:namedview
     pagecolor="#ffffff"
     bordercolor="#666666"
     borderopacity="1"
     objecttolerance="10"
     gridtolerance="10"
     guidetolerance="10"
     inkscape:pageopacity="0"
     inkscape:pageshadow="2"
     inkscape:window-width="1920"
     inkscape:window-height="1051"
     id="namedview14"
     showgrid="false"
     inkscape:zoom="7.3750577"
     inkscape:cx="15.999875"
     inkscape:cy="15.999875"
     inkscape:window-x="-9"
     inkscape:window-y="-9"
     inkscape:window-maximized="1"
     inkscape:current-layer="svg12" /><defs
     id="defs4"><style
       type="text/css"
       id="style2"><![CDATA[
    .fil0 {fill:black}
    .fil1 {fill:black;fill-rule:nonzero}
   ]]></style></defs><path
     style="fill:#000000;stroke-width:0.03779528"
     d="M 5.21875 2.7460938 C 4.6699626 2.7460937 4.1710505 2.9112143 3.8085938 3.1757812 L 3.8046875 3.1777344 C 3.4426087 3.4426793 3.2167969 3.8083544 3.2167969 4.2089844 L 3.2167969 15.011719 L 5.21875 15.011719 L 5.21875 4.2089844 L 26.830078 4.2089844 L 26.851562 15.011719 L 28.832031 15.011719 L 28.832031 4.2089844 C 28.832031 3.8083544 28.60855 3.4426793 28.246094 3.1777344 L 28.242188 3.1757812 C 27.879731 2.9112143 27.378866 2.7460938 26.830078 2.7460938 L 5.21875 2.7460938 z M 16.025391 24.599609 A 2.3021104 2.3021104 0 0 0 13.722656 26.900391 A 2.3021104 2.3021104 0 0 0 16.025391 29.203125 A 2.3021104 2.3021104 0 0 0 18.328125 26.900391 A 2.3021104 2.3021104 0 0 0 16.025391 24.599609 z "
     transform="scale(26.458332)"
     id="circle7" /></svg>