<?xml version="1.0" encoding="UTF-8"?>
<!DOCTYPE svg PUBLIC "-//W3C//DTD SVG 1.1//EN" "http://www.w3.org/Graphics/SVG/1.1/DTD/svg11.dtd">
<!-- Creator: CorelDRAW 2017 -->
<svg xmlns="http://www.w3.org/2000/svg" xml:space="preserve" width="8.47mm" height="8.47mm" version="1.1" style="shape-rendering:geometricPrecision; text-rendering:geometricPrecision; image-rendering:optimizeQuality; fill-rule:evenodd; clip-rule:evenodd"
viewBox="0 0 847 847"
 xmlns:xlink="http://www.w3.org/1999/xlink">
 <defs>
  <style type="text/css">
   <![CDATA[
    .fil0 {fill:black}
    .fil1 {fill:black;fill-rule:nonzero}
   ]]>
  </style>
 </defs>
 <g id="Layer_x0020_1">
  <metadata id="CorelCorpID_0Corel-Layer"/>
  <polygon class="fil0" points="799.71,495.27 781.69,483.19 763.66,471.09 790.7,463.44 817.72,455.79 808.71,475.53 "/>
  <rect class="fil0" x="329.07" y="520.37" width="500.06" height="19.75"/>
  <rect class="fil0" x="293.49" y="485.39" width="49.15" height="9.87"/>
  <rect class="fil0" x="201.66" y="485.39" width="56.4" height="9.87"/>
  <rect class="fil0" x="109.85" y="485.39" width="56.4" height="9.87"/>
  <rect class="fil0" x="18.03" y="485.84" width="56.4" height="9.87"/>
  <path class="fil1" d="M788.1 482.07c-12.14,-47.99 -41.4,-89.77 -81.43,-119.35 -39.18,-28.97 -88.72,-46.26 -142.6,-46.26 -52.12,0 -100.59,20.17 -139.53,51.68 -41.12,33.25 -71.64,79.07 -84.8,127.12l-16.26 0c13.37,-52.2 46.18,-102.21 90.76,-138.26 41.69,-33.71 93.69,-55.31 149.83,-55.31 57.5,0 110.43,18.49 152.35,49.49 42.78,31.63 74.07,76.25 87.04,127.48l-15.36 3.41z"/>
 </g>
</svg>
