<?xml version="1.0" encoding="UTF-8"?>
<!DOCTYPE svg PUBLIC "-//W3C//DTD SVG 1.1//EN" "http://www.w3.org/Graphics/SVG/1.1/DTD/svg11.dtd">
<!-- Creator: CorelDRAW 2017 -->
<svg xmlns="http://www.w3.org/2000/svg" xml:space="preserve" width="8.4666mm" height="8.4666mm" version="1.1" style="shape-rendering:geometricPrecision; text-rendering:geometricPrecision; image-rendering:optimizeQuality; fill-rule:evenodd; clip-rule:evenodd"
viewBox="0 0 846.66 846.66"
 xmlns:xlink="http://www.w3.org/1999/xlink">
 <defs>
  <style type="text/css">
   <![CDATA[
    .fil0 {fill:#1F1B20}
   ]]>
  </style>
 </defs>
 <g id="Layer_x0020_1">
  <metadata id="CorelCorpID_0Corel-Layer"/>
  <g id="_2141596858768">
   <rect class="fil0" x="356.75" y="123.26" width="19.97" height="600.03"/>
   <rect class="fil0" x="480.04" y="169.03" width="19.97" height="554.27"/>
  </g>
  <polygon class="fil0" points="490.04,123.27 505.93,146.15 521.83,169.02 490.04,169.02 458.26,169.02 474.15,146.15 "/>
  <rect class="fil0" x="324.99" y="123.25" width="46.51" height="11.11"/>
  <rect class="fil0" x="324.99" y="157.91" width="46.51" height="11.11"/>
  <rect class="fil0" x="324.99" y="192.55" width="46.51" height="11.11"/>
  <rect class="fil0" x="324.99" y="227.2" width="46.51" height="11.11"/>
  <rect class="fil0" x="324.99" y="261.82" width="46.51" height="11.11"/>
  <rect class="fil0" x="324.99" y="296.49" width="46.51" height="11.11"/>
  <rect class="fil0" x="324.99" y="331.11" width="46.51" height="11.11"/>
  <rect class="fil0" x="324.99" y="365.75" width="46.51" height="11.11"/>
  <rect class="fil0" x="324.99" y="400.39" width="46.51" height="11.11"/>
  <rect class="fil0" x="324.99" y="435.03" width="46.51" height="11.11"/>
  <rect class="fil0" x="324.99" y="469.68" width="46.51" height="11.11"/>
  <rect class="fil0" x="324.99" y="504.32" width="46.51" height="11.11"/>
  <rect class="fil0" x="324.99" y="538.96" width="46.51" height="11.11"/>
  <rect class="fil0" x="324.99" y="573.62" width="46.51" height="11.11"/>
  <rect class="fil0" x="324.99" y="608.24" width="46.51" height="11.11"/>
  <rect class="fil0" x="324.99" y="642.88" width="46.51" height="11.11"/>
  <rect class="fil0" x="324.99" y="677.52" width="46.51" height="11.11"/>
  <rect class="fil0" x="324.99" y="712.16" width="46.51" height="11.11"/>
 </g>
</svg>
