<?xml version="1.0" encoding="UTF-8"?>
<!DOCTYPE svg PUBLIC "-//W3C//DTD SVG 1.1//EN" "http://www.w3.org/Graphics/SVG/1.1/DTD/svg11.dtd">
<!-- Creator: CorelDRAW 2017 -->
<svg xmlns="http://www.w3.org/2000/svg" xml:space="preserve" width="8.4666mm" height="8.4666mm" version="1.1" style="shape-rendering:geometricPrecision; text-rendering:geometricPrecision; image-rendering:optimizeQuality; fill-rule:evenodd; clip-rule:evenodd"
viewBox="0 0 846.66 846.66"
 xmlns:xlink="http://www.w3.org/1999/xlink">
 <defs>
  <style type="text/css">
   <![CDATA[
    .str0 {stroke:black;stroke-width:20;stroke-miterlimit:22.9256}
    .fil0 {fill:none}
    .fil1 {fill:black}
   ]]>
  </style>
 </defs>
 <g id="Warstwa_x0020_1">
  <metadata id="CorelCorpID_0Corel-Layer"/>
  <line class="fil0 str0" x1="490.05" y1="723.27" x2="490.05" y2= "155.28" />
  <polygon class="fil1" points="490.04,123.27 505.93,146.15 521.83,169.02 490.04,169.02 458.26,169.02 474.15,146.15 "/>
  <line class="fil0 str0" x1="366.74" y1="723.27" x2="366.74" y2= "123.27" />
  <rect class="fil1" x="324.98" y="123.27" width="46.51" height="11.11"/>
  <rect class="fil1" x="324.98" y="157.91" width="46.51" height="11.11"/>
  <rect class="fil1" x="324.98" y="192.55" width="46.51" height="11.11"/>
  <rect class="fil1" x="324.98" y="227.19" width="46.51" height="11.11"/>
  <rect class="fil1" x="324.98" y="261.83" width="46.51" height="11.11"/>
  <rect class="fil1" x="324.98" y="296.47" width="46.51" height="11.11"/>
  <rect class="fil1" x="324.98" y="331.11" width="46.51" height="11.11"/>
  <rect class="fil1" x="324.98" y="365.75" width="46.51" height="11.11"/>
  <rect class="fil1" x="324.98" y="400.39" width="46.51" height="11.11"/>
  <rect class="fil1" x="324.98" y="435.03" width="46.51" height="11.11"/>
  <rect class="fil1" x="324.98" y="469.68" width="46.51" height="11.11"/>
  <rect class="fil1" x="324.98" y="504.32" width="46.51" height="11.11"/>
  <rect class="fil1" x="324.98" y="538.96" width="46.51" height="11.11"/>
  <rect class="fil1" x="324.98" y="573.6" width="46.51" height="11.11"/>
  <rect class="fil1" x="324.98" y="608.24" width="46.51" height="11.11"/>
  <rect class="fil1" x="324.98" y="642.88" width="46.51" height="11.11"/>
  <rect class="fil1" x="324.98" y="677.52" width="46.51" height="11.11"/>
  <rect class="fil1" x="324.98" y="712.16" width="46.51" height="11.11"/>
 </g>
</svg>
