<?xml version="1.0" encoding="UTF-8"?>
<!DOCTYPE svg PUBLIC "-//W3C//DTD SVG 1.1//EN" "http://www.w3.org/Graphics/SVG/1.1/DTD/svg11.dtd">
<!-- Creator: CorelDRAW 2017 -->
<svg xmlns="http://www.w3.org/2000/svg" xml:space="preserve" width="8.4666mm" height="8.4666mm" version="1.1" style="shape-rendering:geometricPrecision; text-rendering:geometricPrecision; image-rendering:optimizeQuality; fill-rule:evenodd; clip-rule:evenodd"
viewBox="0 0 846.66 846.66"
 xmlns:xlink="http://www.w3.org/1999/xlink">
 <defs>
  <style type="text/css">
   <![CDATA[
    .str0 {stroke:black;stroke-width:20;stroke-miterlimit:22.9256}
    .fil0 {fill:none}
    .fil1 {fill:black}
   ]]>
  </style>
 </defs>
 <g id="Warstwa_x0020_1">
  <metadata id="CorelCorpID_0Corel-Layer"/>
  <path class="fil0 str0" d="M114.36 747.87c143.07,65.09 234.22,-22.17 147.33,-169.49 -90.13,-138.1 -1.96,-239.73 145.68,-167.58 150.06,68.73 242.48,-35.41 148.16,-170.43 -84.66,-141.41 -4.64,-239.09 147.33,-169.49 11.6,5.03 22.76,9.12 33.44,12.32"/>
  <polygon class="fil1" points="205.12,600.52 234.15,648.77 263.18,697.02 205.12,697.02 147.07,697.02 176.1,648.77 "/>
  <polygon class="fil1" points="341.93,440.5 370.95,488.75 399.98,536.99 341.93,536.99 283.88,536.99 312.9,488.75 "/>
  <polygon class="fil1" points="490.44,271.55 519.47,319.8 548.5,368.05 490.44,368.05 432.39,368.05 461.42,319.8 "/>
  <polygon class="fil1" points="636.84,106.49 665.87,154.74 694.9,202.99 636.84,202.99 578.79,202.99 607.82,154.74 "/>
  <circle class="fil1" cx="113.67" cy="758.42" r="40.27"/>
 </g>
</svg>
