<?xml version="1.0" encoding="UTF-8"?>
<!DOCTYPE svg PUBLIC "-//W3C//DTD SVG 1.1//EN" "http://www.w3.org/Graphics/SVG/1.1/DTD/svg11.dtd">
<!-- Creator: CorelDRAW 2017 -->
<svg xmlns="http://www.w3.org/2000/svg" xml:space="preserve" width="8.4666mm" height="8.4666mm" version="1.1" style="shape-rendering:geometricPrecision; text-rendering:geometricPrecision; image-rendering:optimizeQuality; fill-rule:evenodd; clip-rule:evenodd"
viewBox="0 0 846.66 846.66"
 xmlns:xlink="http://www.w3.org/1999/xlink">
 <defs>
  <style type="text/css">
   <![CDATA[
    .fil1 {fill:none}
    .fil0 {fill:black}
   ]]>
  </style>
 </defs>
 <g id="Layer_x0020_1">
  <metadata id="CorelCorpID_0Corel-Layer"/>
  <g id="_2833184413760">
   <g>
    <path class="fil0" d="M191.08 667.76c83.06,50.78 179.29,-13.05 128.39,-116.26 -19,-38.51 -62.3,-101.2 -9.56,-138.88 58.5,-41.8 167.16,78.02 227.2,-7.32 27.48,-39.07 -1.32,-92.31 -19.57,-128.89 -2.41,-3.96 -7.49,-5.27 -11.34,-2.92 -3.85,2.35 -5.01,7.46 -2.6,11.43 14.35,28.74 42.59,78.39 20.03,110.47 -57.08,81.18 -188.81,-76.23 -245.54,28.06 -26.94,49.5 6.73,94.75 26.72,135.26 45.14,91.45 -40.85,134.37 -103.92,95.9 -3.65,-2.84 -8.8,-2.2 -11.51,1.44 -2.71,3.63 -1.94,8.87 1.7,11.71z"/>
   </g>
   <path class="fil1" d="M195.98 661.18c30.38,23.63 86.52,21.12 114.14,-10.06 20.02,-22.62 26.4,-59.49 -9.53,-116.44 -29.32,-46.48 -30.01,-92.47 -8.14,-117.37 65.27,-74.28 163.16,63.04 234.06,-12.22 22.4,-23.77 15.85,-72.13 -15.94,-124.42"/>
   <g>
    <path class="fil0" d="M503.45 284.65c-20.64,-41.57 -30.5,-80 -4.38,-120.83 43.61,-43.01 91.82,-19.37 143.09,0.26 4.31,1.55 6.66,6.32 5.24,10.66 -1.42,4.35 -6.07,6.61 -10.38,5.06 -9.25,-3.54 -4.64,-1.66 -13.85,-5.63l-40.24 -14.02c-74.58,-16.45 -93.46,28.43 -75.53,94.16 6.55,15.29 3.11,7.85 10.28,22.34 2.28,4.05 0.94,9.12 -2.99,11.33 -3.93,2.21 -8.96,0.72 -11.24,-3.33zm-4.38 -120.83l0 -0.01 0 0.01 0 0z"/>
   </g>
   <path class="fil1" d="M510.57 280.65c-3.29,-5.83 -8.14,-16.64 -10.8,-23.43 -10.47,-26.85 -11.95,-66.05 5.73,-88.04 18.91,-23.6 60.17,-30.22 120.88,-2.62 4.44,2.03 8.86,3.82 13.21,5.38"/>
  </g>
  <g id="_2833184411904">
   <polygon class="fil0" points="258.53,551.82 279.8,587.17 301.07,622.53 258.53,622.53 215.99,622.53 237.27,587.17 "/>
   <polygon class="fil0" points="358.77,434.58 380.03,469.93 401.3,505.27 358.77,505.27 316.23,505.27 337.5,469.93 "/>
   <polygon class="fil0" points="467.58,310.79 488.85,346.14 510.12,381.49 467.58,381.49 425.05,381.49 446.32,346.14 "/>
   <polygon class="fil0" points="574.85,189.85 596.12,225.2 617.39,260.55 574.85,260.55 532.31,260.55 553.58,225.2 "/>
   <circle class="fil0" cx="191.52" cy="667.51" r="29.51"/>
  </g>
 </g>
</svg>
