<?xml version="1.0" encoding="UTF-8"?>
<!DOCTYPE svg PUBLIC "-//W3C//DTD SVG 1.1//EN" "http://www.w3.org/Graphics/SVG/1.1/DTD/svg11.dtd">
<!-- Creator: CorelDRAW 2017 -->
<svg xmlns="http://www.w3.org/2000/svg" xml:space="preserve" width="8.4666mm" height="8.4666mm" version="1.1" style="shape-rendering:geometricPrecision; text-rendering:geometricPrecision; image-rendering:optimizeQuality; fill-rule:evenodd; clip-rule:evenodd"
viewBox="0 0 846.66 846.66"
 xmlns:xlink="http://www.w3.org/1999/xlink">
 <defs>
  <style type="text/css">
   <![CDATA[
    .str0 {stroke:black;stroke-width:15;stroke-miterlimit:22.9256}
    .fil0 {fill:none}
    .fil1 {fill:black;fill-rule:nonzero}
   ]]>
  </style>
 </defs>
 <g id="Warstwa_x0020_1">
  <metadata id="CorelCorpID_0Corel-Layer"/>
  <path class="fil0 str0" d="M214.34 514.2c50.22,0 90.94,-40.71 90.94,-90.93 0,-50.22 -40.72,-90.94 -90.94,-90.94 -50.23,0 -90.94,40.72 -90.94,90.94 0,50.22 40.71,90.93 90.94,90.93zm-2.56 -157.7l0 72.76 63.77 0.03"/>
  <path class="fil1" d="M372.42 404.53l0 -30.64 69.8 0 0 -21.36 -92.52 0 0 74.77c10.43,-1.21 30.85,-2.01 40.22,-2.01 20,0 32.29,8.86 32.29,23.38 0,15.72 -12.29,25.39 -32.71,25.39 -13.75,0 -28.96,-5.44 -41.25,-14.91l-10.01 19.34c15,9.68 36.05,16.13 53.97,16.13 34.18,0 56.27,-18.75 56.27,-47.57 0,-24.59 -21.26,-42.72 -54.39,-42.72 -5.62,0 -15.22,0 -21.67,0.2z"/>
  <path id="1" class="fil1" d="M523.91 351.93c-35.43,0 -55.01,25.39 -55.01,71.14 0,45.95 19.58,71.34 55.01,71.34 35.22,0 54.8,-25.39 54.8,-71.34 0,-45.75 -19.58,-71.14 -54.8,-71.14zm0 18.54c20.21,0 30.42,16.73 30.42,52.6 0,35.87 -10.21,52.8 -30.42,52.8 -20.43,0 -30.63,-16.93 -30.63,-52.8 0,-35.87 10.2,-52.6 30.63,-52.6z"/>
  <path id="2" class="fil1" d="M696.3 421.8c-13.47,0 -23.34,5.24 -28.06,17.2 -3.48,-10.89 -12.5,-17.2 -25.7,-17.2 -12.23,0 -21.67,4.3 -26.81,14.37l0 -13.83 -15.84 0 0 71.47 15.84 0 0 -35.33c0,-12.5 7.78,-21.9 20.56,-22.31 10.83,0 17.36,6.59 17.36,17.47l0 40.17 15.97 0 0 -35.33c0,-12.5 7.64,-21.9 20.29,-22.31 10.83,0 17.5,6.59 17.5,17.47l0 40.17 15.98 0 0 -44.47c0,-17.06 -10.15,-27.54 -27.09,-27.54z"/>
 </g>
</svg>
