<?xml version="1.0" encoding="UTF-8"?>
<!DOCTYPE svg PUBLIC "-//W3C//DTD SVG 1.1//EN" "http://www.w3.org/Graphics/SVG/1.1/DTD/svg11.dtd">
<!-- Creator: CorelDRAW 2017 -->
<svg xmlns="http://www.w3.org/2000/svg" xml:space="preserve" width="8.4666mm" height="8.4666mm" version="1.1" style="shape-rendering:geometricPrecision; text-rendering:geometricPrecision; image-rendering:optimizeQuality; fill-rule:evenodd; clip-rule:evenodd"
viewBox="0 0 846.66 846.66"
 xmlns:xlink="http://www.w3.org/1999/xlink">
 <defs>
  <style type="text/css">
   <![CDATA[
    .fil0 {fill:black}
   ]]>
  </style>
 </defs>
 <g id="Warstwa_x0020_1">
  <metadata id="CorelCorpID_0Corel-Layer"/>
  <path class="fil0" d="M327.67 345.15c-14.95,23.94 -20.49,49.18 -21.06,75.64 -0.07,3.08 -0.07,6.18 -0.01,9.29 0.67,34.15 -39.63,36.3 -41.19,0.16 -3.28,-75.81 66.84,-158.1 104.6,-185.89 45.93,-45.81 91.26,5.57 72.44,40.05 -7.92,14.51 -7.8,33.61 -8.62,49.42 -1.04,20.08 -0.54,39.11 0.49,56.97l85.06 0 0.42 0.01c16.51,-0.26 30.96,11.65 32.89,27.73l17.9 149.25c2.05,17.12 -10.83,32.73 -28.63,34.71l-2.06 0.23c-17.8,1.97 -34.04,-10.42 -36.09,-27.53l-13.47 -112.28 -48.64 0c18.35,88.3 15.32,169.75 -14.33,242.68 -6.75,16.6 -24.44,21.29 -41.21,15 -17.8,-6.69 -19.64,-21.22 -14.31,-40.18 19.22,-68.43 20.28,-144.8 2.24,-217.5l-8.57 0c-13.33,0 -24.83,-8.98 -29.66,-21.67 -8.99,-17.66 -13.24,-56.08 -8.19,-96.09zm200.58 31.44c29.41,0 53.26,-23.84 53.26,-53.26 0,-29.41 -23.85,-53.25 -53.26,-53.25 -29.41,0 -53.26,23.84 -53.26,53.25 0,29.42 23.85,53.26 53.26,53.26zm-46.89 -129.2c32.54,0 58.91,-27.79 58.91,-62.06 0,-34.27 -26.37,-62.06 -58.91,-62.06 -32.53,0 -58.9,27.79 -58.9,62.06 0,34.27 26.37,62.06 58.9,62.06z"/>
 </g>
</svg>
