<?xml version="1.0" encoding="UTF-8"?>
<!DOCTYPE svg PUBLIC "-//W3C//DTD SVG 1.1//EN" "http://www.w3.org/Graphics/SVG/1.1/DTD/svg11.dtd">
<!-- Creator: CorelDRAW 2017 -->
<svg xmlns="http://www.w3.org/2000/svg" xml:space="preserve" width="8.47mm" height="8.47mm" version="1.1" style="shape-rendering:geometricPrecision; text-rendering:geometricPrecision; image-rendering:optimizeQuality; fill-rule:evenodd; clip-rule:evenodd"
viewBox="0 0 847 847"
 xmlns:xlink="http://www.w3.org/1999/xlink">
 <defs>
  <style type="text/css">
   <![CDATA[
    .fil0 {fill:black}
   ]]>
  </style>
 </defs>
 <g id="Layer_x0020_1">
  <metadata id="CorelCorpID_0Corel-Layer"/>
  <path class="fil0" d="M612.94 152.64l52.33 -0.02 16.05 0 0.9 0 0 67.45 -16.95 0 0 -35.85 -265.45 267.45 -14.01 -13.92 266.53 -268.52 -39.4 0 0 -16.59zm-294.67 303.28c32.56,0 58.95,26.38 58.95,58.94 0,32.57 -26.39,58.95 -58.95,58.95 -32.56,0 -58.95,-26.38 -58.95,-58.95 0,-32.56 26.39,-58.94 58.95,-58.94zm-75.99 138.58c2.76,-3.82 7.59,-5.45 10.8,-3.65 3.22,1.81 3.6,6.38 0.84,10.21 -56.34,74.15 -92.36,0.04 -133.77,28.82 -31.76,22.07 -15.51,53.51 -10,73.1 16.18,57.52 -47.73,100.56 -90.53,73.71 -2.76,-2.37 -2.4,-7.13 0.8,-10.64 3.21,-3.5 8.04,-4.44 10.8,-2.07 27.27,17.01 77.28,-6.59 64.08,-53.44 -6.42,-22.79 -19.54,-47.09 2.38,-76.95 46.63,-63.58 98.04,19.8 139.44,-32.3l5.16 -6.79zm234.05 -577.75l27.62 45.91 27.63 45.92 -55.25 0 -55.26 0 27.63 -45.92 27.63 -45.91zm304.33 284.85l27.63 45.93 27.62 45.91 -55.25 0 -55.24 0 27.62 -45.91 27.62 -45.93z"/>
 </g>
</svg>
