<?xml version="1.0" encoding="UTF-8"?>
<!DOCTYPE svg PUBLIC "-//W3C//DTD SVG 1.1//EN" "http://www.w3.org/Graphics/SVG/1.1/DTD/svg11.dtd">
<!-- Creator: CorelDRAW 2017 -->
<svg xmlns="http://www.w3.org/2000/svg" xml:space="preserve" width="8.47mm" height="8.47mm" version="1.1" style="shape-rendering:geometricPrecision; text-rendering:geometricPrecision; image-rendering:optimizeQuality; fill-rule:evenodd; clip-rule:evenodd"
viewBox="0 0 847 847"
 xmlns:xlink="http://www.w3.org/1999/xlink">
 <defs>
  <style type="text/css">
   <![CDATA[
    .fil1 {fill:none}
    .fil0 {fill:black}
   ]]>
  </style>
 </defs>
 <g id="Layer_x0020_1">
  <metadata id="CorelCorpID_0Corel-Layer"/>
  <path class="fil0" d="M85.6 519.45c79.24,-284.83 386.08,-464.36 655.9,-325.77l47.54 28.35 23.52 -40.74 12.22 34.22 12.24 34.22 -35.75 6.51 -35.75 6.52 21.99 -38.09 -49.87 -22.47c-272.36,-107.87 -547.29,45.74 -618.92,323.85 -1.82,9.14 -10.72,15.07 -19.86,13.25 -9.14,-1.82 -15.08,-10.7 -13.26,-19.85z"/>
  <g id="_2401344226960">
   <path class="fil1" d="M102.15 522.75c50.03,-251.37 379.01,-490.27 697.13,-292.79"/>
   <path class="fil0" d="M130.8 640.62c0,-33.32 -27.02,-60.34 -60.34,-60.34 -33.32,0 -60.34,27.02 -60.34,60.34 0,33.32 27.02,60.34 60.34,60.34 33.32,0 60.34,-27.02 60.34,-60.34z"/>
  </g>
 </g>
</svg>
