<?xml version="1.0" encoding="UTF-8"?>
<!DOCTYPE svg PUBLIC "-//W3C//DTD SVG 1.1//EN" "http://www.w3.org/Graphics/SVG/1.1/DTD/svg11.dtd">
<!-- Creator: CorelDRAW 2017 -->
<svg xmlns="http://www.w3.org/2000/svg" xml:space="preserve" width="8.47mm" height="8.47mm" version="1.1" style="shape-rendering:geometricPrecision; text-rendering:geometricPrecision; image-rendering:optimizeQuality; fill-rule:evenodd; clip-rule:evenodd"
viewBox="0 0 847 847"
 xmlns:xlink="http://www.w3.org/1999/xlink">
 <defs>
  <style type="text/css">
   <![CDATA[
    .fil0 {fill:black}
   ]]>
  </style>
 </defs>
 <g id="Layer_x0020_1">
  <metadata id="CorelCorpID_0Corel-Layer"/>
  <g id="_902699520">
   <circle class="fil0" cx="635.03" cy="581.62" r="173.84"/>
   <path class="fil0" d="M321.86 18.44l145.38 0 -138.83 372.63c-0.01,10.42 10.67,1.39 13.76,10.42 24.34,28.62 -27.1,206.88 131.84,366.92 19.2,35.54 4.3,86.39 -77.75,43.91l0 0 -28.14 4.2 -1.93 -31.61 -8.26 -8.13 -29.78 1.1 1.47 -28.97 -5.66 -5.57 -29.04 2.65 -0.12 -31.37 -175.28 -169.92 -29.62 -1.22 0.29 -32.52 -7.57 -8.73 -33.55 0.82 4.71 -32.06c0.15,-0.98 -1.12,-1.64 -1.64,-2.42 -25.14,-37.66 -14.91,-67.87 21.05,-92.39 9.62,-6.54 28.86,-18.03 41.01,-25.68 20.74,-13.04 45.57,-40.72 53.56,-52.79 19.68,-29.64 16.64,-26.82 32.88,-27.59 1.84,-0.08 9.95,-0.41 11.04,1.12 2.5,3.54 0.79,17.67 9,3.38l101.18 -256.18z"/>
  </g>
 </g>
</svg>
