<?xml version="1.0" encoding="UTF-8"?>
<!DOCTYPE svg PUBLIC "-//W3C//DTD SVG 1.1//EN" "http://www.w3.org/Graphics/SVG/1.1/DTD/svg11.dtd">
<!-- Creator: CorelDRAW 2017 -->
<svg xmlns="http://www.w3.org/2000/svg" xml:space="preserve" width="8.47mm" height="8.47mm" version="1.1" style="shape-rendering:geometricPrecision; text-rendering:geometricPrecision; image-rendering:optimizeQuality; fill-rule:evenodd; clip-rule:evenodd"
viewBox="0 0 847 847"
 xmlns:xlink="http://www.w3.org/1999/xlink">
 <defs>
  <style type="text/css">
   <![CDATA[
    .fil0 {fill:black}
   ]]>
  </style>
 </defs>
 <g id="Layer_x0020_1">
  <metadata id="CorelCorpID_0Corel-Layer"/>
  <g id="_897778048">
   <path class="fil0" d="M746.97 382.23c45.39,0 82.17,-36.8 82.17,-82.17 0,-45.38 -36.78,-82.15 -82.17,-82.15 -45.37,0 -82.15,36.77 -82.15,82.15 0,45.37 36.78,82.17 82.15,82.17z"/>
   <path class="fil0" d="M586.72 323.87l0 0c17.41,-3.06 47.28,9.59 48.28,27.23 5.74,100.84 17.08,168.52 29.85,227.72 3.73,17.26 -4.44,41.66 -21.85,44.74 -17.5,3.08 -32.71,-12.04 -37.35,-28.83 -36.56,-132.33 -35.21,-221.1 -29.2,-230.35 9.66,-14.79 -7.12,-37.44 10.27,-40.51z"/>
   <path class="fil0" d="M364.1 351.47c53.56,-46.43 180.52,-70.13 251.26,-63.59 37.05,3.44 32.38,42.27 43.94,57.46 8.63,17.94 4.51,29.33 -5.48,43.23 -23.38,32.54 -85.64,38.74 -184.96,66.34 -125.15,58.41 -246.45,142.32 -388.22,173.08 -72.47,11.01 -91.82,-73.72 -5.36,-93.82 82.59,-19.19 156.47,-62.1 232.15,-103.37 45.04,-24.56 16.22,-44.29 56.67,-79.33z"/>
  </g>
 </g>
</svg>
