<?xml version="1.0" encoding="UTF-8"?>
<!DOCTYPE svg PUBLIC "-//W3C//DTD SVG 1.1//EN" "http://www.w3.org/Graphics/SVG/1.1/DTD/svg11.dtd">
<!-- Creator: CorelDRAW 2017 -->
<svg xmlns="http://www.w3.org/2000/svg" xml:space="preserve" width="8.4666mm" height="8.4666mm" version="1.1" style="shape-rendering:geometricPrecision; text-rendering:geometricPrecision; image-rendering:optimizeQuality; fill-rule:evenodd; clip-rule:evenodd"
viewBox="0 0 846.66 846.66"
 xmlns:xlink="http://www.w3.org/1999/xlink">
 <defs>
  <style type="text/css">
   <![CDATA[
    .fil0 {fill:black}
   ]]>
  </style>
 </defs>
 <g id="Warstwa_x0020_1">
  <metadata id="CorelCorpID_0Corel-Layer"/>
  <g id="_891995168">
   <path class="fil0" d="M388.56 280.9c31.52,0 57.07,-24.1 57.07,-53.82 0,-29.72 -25.55,-53.81 -57.07,-53.81 -31.52,0 -57.07,24.09 -57.07,53.81 0,29.72 25.55,53.82 57.07,53.82z"/>
   <path class="fil0" d="M373.14 452.85c-5.06,-23.12 30.66,-73.66 31.76,-127.07 -6.93,-42.9 -60.04,-45.82 -83.94,-18.31 -21.85,50.72 -63.11,133.43 -25.81,188.16 8.65,12.69 10.44,14.06 25.59,16.85 32.93,6.09 81.19,5.74 109.42,11.71l-29.58 120.55c-7.07,22.33 47.81,49.17 55.08,3.95 3.4,-21.79 24.91,-91.69 31.74,-137.25 3.84,-25.63 -0.46,-41.89 -18.43,-43.88l-95.83 -14.71z"/>
   <path class="fil0" d="M335.63 340.08l0 0c-0.19,-11.57 12.89,-29.58 26.21,-28.36 75.46,6.87 127.43,6.63 174,4.54 13.37,-0.6 30.64,7.24 30.83,18.81 0.18,11.65 -12.96,19.96 -26.09,21.13 -105.58,9.4 -199.64,0.75 -204.96,-3.96 -9.39,-8.33 0.19,-0.59 0.01,-12.16z"/>
  </g>
 </g>
</svg>
