<?xml version="1.0" encoding="UTF-8"?>
<!DOCTYPE svg PUBLIC "-//W3C//DTD SVG 1.1//EN" "http://www.w3.org/Graphics/SVG/1.1/DTD/svg11.dtd">
<!-- Creator: CorelDRAW 2017 -->
<svg xmlns="http://www.w3.org/2000/svg" xml:space="preserve" width="8.47mm" height="8.47mm" version="1.1" style="shape-rendering:geometricPrecision; text-rendering:geometricPrecision; image-rendering:optimizeQuality; fill-rule:evenodd; clip-rule:evenodd"
viewBox="0 0 847 847"
 xmlns:xlink="http://www.w3.org/1999/xlink">
 <defs>
  <style type="text/css">
   <![CDATA[
    .fil0 {fill:black}
   ]]>
  </style>
 </defs>
 <g id="Layer_x0020_1">
  <metadata id="CorelCorpID_0Corel-Layer"/>
  <path class="fil0" d="M324.74 178.74c41.31,0 74.81,-35.29 74.81,-78.82 0,-43.54 -33.5,-78.82 -74.81,-78.82 -41.32,0 -74.82,35.28 -74.82,78.82 0,43.53 33.5,78.82 74.82,78.82zm155.93 415.64c-0.01,-2.86 -0.36,-5.74 -1.07,-8.63l-34.87 -143.31c-3.99,-27.68 -6.96,-55.41 -11.77,-82.81 43.6,5.4 100.66,4.06 154.16,-14.53 13.28,-4.61 20,-14.59 19.81,-27.01 -0.2,-12.34 -18.84,-22.65 -32.87,-20.06 -43.37,7.98 -91.15,12.01 -156.15,0.95 -7.74,-22.57 -18.33,-44.71 -33.51,-66.2 -18,-25.49 -49.6,-50.54 -77.35,-44.01 -29.25,6.86 -45.66,51.03 -31.94,77.76 31.59,61.53 43.84,124.02 43.7,176.67 -0.05,20.6 10.28,55.18 33.49,58.95l16.85 68.33 0 0 -114.72 99.45c-17.2,14.92 -19.06,41.18 -4.15,58.37l1.72 1.99c14.91,17.19 41.17,19.07 58.37,4.15l46.18 -40.04 -28 74.52c-8,21.31 2.87,45.29 24.18,53.3l2.46 0.92c21.31,8.01 45.29,-2.88 53.28,-24.18l69.8 -185.75c2.34,-6.21 3.06,-12.64 2.4,-18.83zm0.86 -307.6c37.35,0 67.64,-30.29 67.64,-67.64 0,-37.36 -30.29,-67.64 -67.64,-67.64 -37.35,0 -67.63,30.28 -67.63,67.64 0,37.35 30.28,67.64 67.63,67.64z"/>
 </g>
</svg>
