<?xml version="1.0" encoding="UTF-8"?>
<!DOCTYPE svg PUBLIC "-//W3C//DTD SVG 1.1//EN" "http://www.w3.org/Graphics/SVG/1.1/DTD/svg11.dtd">
<!-- Creator: CorelDRAW 2017 -->
<svg xmlns="http://www.w3.org/2000/svg" xml:space="preserve" width="8.47mm" height="8.47mm" version="1.1" style="shape-rendering:geometricPrecision; text-rendering:geometricPrecision; image-rendering:optimizeQuality; fill-rule:evenodd; clip-rule:evenodd"
viewBox="0 0 847 847"
 xmlns:xlink="http://www.w3.org/1999/xlink">
 <defs>
  <style type="text/css">
   <![CDATA[
    .fil0 {fill:black}
   ]]>
  </style>
 </defs>
 <g id="Layer_x0020_1">
  <metadata id="CorelCorpID_0Corel-Layer"/>
  <g id="_902710400">
   <circle class="fil0" cx="421.94" cy="721.09" r="73.92"/>
   <path class="fil0" d="M754.37 591.32l2.15 0c18.54,0 33.7,-18.74 33.7,-41.63l0 -199.61c0,-22.9 -15.16,-41.63 -33.7,-41.63l-2.15 0c-18.54,0 -33.69,18.73 -33.69,41.63l0 199.61c0,22.89 15.15,41.63 33.69,41.63z"/>
   <path class="fil0" d="M684.83 591.32l2.14 0c18.53,0 33.71,-18.74 33.71,-41.63l0 -199.61c0,-22.9 -15.18,-41.63 -33.71,-41.63l-2.14 0c-18.55,0 -33.71,18.73 -33.71,41.63l0 199.61c0,22.89 15.16,41.63 33.71,41.63z"/>
   <circle class="fil0" cx="723.64" cy="98.49" r="46.59"/>
   <path class="fil0" d="M660.76 362.53c-40.3,-16.75 -44.23,-61.88 -45.65,-92.7l-1.2 -36.33c0.93,-27.59 4.63,-54.29 35.92,-71.3 3.87,-2.11 40.1,-7.83 45.13,-6.63 8.27,1.96 18.82,7.67 25.68,7.71l0.06 0c8.39,-0.05 14.66,-5.9 22.75,-7.98 5.82,-1.51 43.69,4.52 48.08,6.9 31.27,17.01 34.97,43.71 35.9,71.3l-1.2 36.33c-1.41,30.82 -4.32,75.86 -44.61,92.61l-59.37 5.45 0 0.28 -1.57 -0.15 -1.58 0.15 0 -0.28 -58.34 -5.36z"/>
   <path class="fil0" d="M556.75 591.32l2.14 0c18.54,0 33.71,-18.74 33.71,-41.63l0 -199.61c0,-22.9 -15.17,-41.63 -33.71,-41.63l-2.14 0c-18.54,0 -33.71,18.73 -33.71,41.63l0 199.61c0,22.89 15.17,41.63 33.71,41.63z"/>
   <path class="fil0" d="M487.19 591.32l2.16 0c18.53,0 33.69,-18.74 33.69,-41.63l0 -199.61c0,-22.9 -15.16,-41.63 -33.69,-41.63l-2.16 0c-18.54,0 -33.69,18.73 -33.69,41.63l0 199.61c0,22.89 15.15,41.63 33.69,41.63z"/>
   <circle class="fil0" cx="526.02" cy="98.49" r="46.59"/>
   <path class="fil0" d="M463.13 362.53c-40.29,-16.75 -44.23,-61.88 -45.64,-92.7l-1.2 -36.33c0.93,-27.59 4.63,-54.29 35.9,-71.3 3.88,-2.11 40.12,-7.83 45.15,-6.63 8.27,1.96 18.82,7.67 25.67,7.71l0.07 0c8.39,-0.05 14.66,-5.9 22.75,-7.98 5.82,-1.51 43.69,4.52 48.06,6.9 31.29,17.01 34.99,43.71 35.92,71.3l-1.2 36.33c-1.43,30.82 -4.32,75.86 -44.61,92.61l-59.38 5.45 0 0.28 -1.58 -0.15 -1.57 0.15 0 -0.28 -58.34 -5.36z"/>
   <path class="fil0" d="M356.97 591.32l2.14 0c18.54,0 33.71,-18.74 33.71,-41.63l0 -199.61c0,-22.9 -15.17,-41.63 -33.71,-41.63l-2.14 0c-18.53,0 -33.71,18.73 -33.71,41.63l0 199.61c0,22.89 15.18,41.63 33.71,41.63z"/>
   <path class="fil0" d="M287.42 591.32l2.14 0c18.53,0 33.7,-18.74 33.7,-41.63l0 -199.61c0,-22.9 -15.17,-41.63 -33.7,-41.63l-2.14 0c-18.54,0 -33.71,18.73 -33.71,41.63l0 199.61c0,22.89 15.17,41.63 33.71,41.63z"/>
   <circle class="fil0" cx="326.23" cy="98.49" r="46.59"/>
   <path class="fil0" d="M263.35 362.53c-40.3,-16.75 -44.23,-61.88 -45.65,-92.7l-1.19 -36.33c0.92,-27.59 4.63,-54.29 35.9,-71.3 3.88,-2.11 40.12,-7.83 45.16,-6.63 8.25,1.96 18.8,7.67 25.65,7.71l0.09 0c8.37,-0.05 14.66,-5.9 22.73,-7.98 5.82,-1.51 43.7,4.52 48.08,6.9 31.27,17.01 34.98,43.71 35.9,71.3l-1.19 36.33c-1.42,30.82 -4.32,75.86 -44.62,92.61l-59.37 5.45 0 0.28 -1.58 -0.15 -1.57 0.15 0 -0.28 -58.34 -5.36z"/>
   <path class="fil0" d="M160.17 591.32l2.14 0c18.54,0 33.71,-18.74 33.71,-41.63l0 -199.61c0,-22.9 -15.17,-41.63 -33.71,-41.63l-2.14 0c-18.53,0 -33.71,18.73 -33.71,41.63l0 199.61c0,22.89 15.18,41.63 33.71,41.63z"/>
   <path class="fil0" d="M90.62 591.32l2.15 0c18.54,0 33.69,-18.74 33.69,-41.63l0 -199.61c0,-22.9 -15.15,-41.63 -33.69,-41.63l-2.15 0c-18.54,0 -33.71,18.73 -33.71,41.63l0 199.61c0,22.89 15.17,41.63 33.71,41.63z"/>
   <circle class="fil0" cx="129.44" cy="98.49" r="46.59"/>
   <path class="fil0" d="M66.56 362.53c-40.29,-16.75 -44.24,-61.88 -45.65,-92.7l-1.2 -36.33c0.93,-27.59 4.63,-54.29 35.9,-71.3 3.88,-2.11 40.12,-7.83 45.16,-6.63 8.26,1.96 18.82,7.67 25.67,7.71l0.06 0c8.39,-0.05 14.67,-5.9 22.76,-7.98 5.81,-1.51 43.68,4.52 48.05,6.9 31.29,17.01 34.99,43.71 35.92,71.3l-1.2 36.33c-1.42,30.82 -4.32,75.86 -44.61,92.61l-59.38 5.45 0 0.28 -1.58 -0.15 -1.57 0.15 0 -0.28 -58.33 -5.36z"/>
  </g>
 </g>
</svg>
