<?xml version="1.0" encoding="UTF-8"?>
<!DOCTYPE svg PUBLIC "-//W3C//DTD SVG 1.1//EN" "http://www.w3.org/Graphics/SVG/1.1/DTD/svg11.dtd">
<!-- Creator: CorelDRAW 2017 -->
<svg xmlns="http://www.w3.org/2000/svg" xml:space="preserve" width="8.4666mm" height="8.4666mm" version="1.1" style="shape-rendering:geometricPrecision; text-rendering:geometricPrecision; image-rendering:optimizeQuality; fill-rule:evenodd; clip-rule:evenodd"
viewBox="0 0 846.66 846.66"
 xmlns:xlink="http://www.w3.org/1999/xlink">
 <defs>
  <style type="text/css">
   <![CDATA[
    .fil0 {fill:#1F1B20}
    .fil1 {fill:#1F1B20;fill-rule:nonzero}
   ]]>
  </style>
 </defs>
 <g id="Layer_x0020_1">
  <metadata id="CorelCorpID_0Corel-Layer"/>
  <g id="_2833252047680">
   <path class="fil0" d="M210.61 518.27c52.48,0 95.01,-42.53 95.01,-94.99 0,-52.48 -42.53,-95.01 -95.01,-95.01 -52.46,0 -94.99,42.53 -94.99,95.01 0,52.46 42.53,94.99 94.99,94.99zm0.02 -15c44.18,0 79.99,-35.81 79.99,-80.01 0,-44.18 -35.81,-79.99 -79.99,-79.99 -44.2,0 -80.01,35.81 -80.01,79.99 0,44.2 35.81,80.01 80.01,80.01z"/>
   <polygon class="fil0" points="200.63,359.26 200.63,427.9 200.64,427.9 200.64,436.53 269.28,436.53 269.28,421.53 215.63,421.53 215.63,359.26 "/>
   <polygon class="fil1" points="323.99,361.67 323.99,381.23 349.18,381.23 349.18,491.04 368.86,491.04 368.86,361.67 "/>
   <path id="_1" class="fil1" d="M460.78 361.12c-28.36,0 -44.05,23.25 -44.05,65.14 0,42.08 15.69,65.33 44.05,65.33 28.18,0 43.86,-23.25 43.86,-65.33 0,-41.89 -15.68,-65.14 -43.86,-65.14zm0 16.98c16.18,0 24.35,15.31 24.35,48.16 0,32.85 -8.17,48.36 -24.35,48.36 -16.35,0 -24.52,-15.51 -24.52,-48.36 0,-32.85 8.17,-48.16 24.52,-48.16z"/>
   <path id="_2" class="fil1" d="M563.7 361.12c-28.36,0 -44.04,23.25 -44.04,65.14 0,42.08 15.68,65.33 44.04,65.33 28.19,0 43.87,-23.25 43.87,-65.33 0,-41.89 -15.68,-65.14 -43.87,-65.14zm0 16.98c16.18,0 24.35,15.31 24.35,48.16 0,32.85 -8.17,48.36 -24.35,48.36 -16.35,0 -24.52,-15.51 -24.52,-48.36 0,-32.85 8.17,-48.16 24.52,-48.16z"/>
   <path id="_3" class="fil1" d="M701.71 425.1c-10.79,0 -18.69,4.79 -22.47,15.74 -2.78,-9.96 -10,-15.74 -20.57,-15.74 -9.79,0 -17.34,3.93 -21.46,13.16l0 -12.67 -12.68 0 0 65.45 12.68 0 0 -32.36c0,-11.44 6.22,-20.05 16.45,-20.42 8.68,0 13.91,6.03 13.91,15.99l0 36.79 12.79 0 0 -32.36c0,-11.44 6.12,-20.05 16.23,-20.42 8.68,0 14.01,6.03 14.01,15.99l0 36.79 12.79 0 0 -40.72c0,-15.63 -8.12,-25.22 -21.68,-25.22z"/>
  </g>
 </g>
</svg>
