<?xml version="1.0" encoding="UTF-8"?>
<!DOCTYPE svg PUBLIC "-//W3C//DTD SVG 1.1//EN" "http://www.w3.org/Graphics/SVG/1.1/DTD/svg11.dtd">
<!-- Creator: CorelDRAW 2017 -->
<svg xmlns="http://www.w3.org/2000/svg" xml:space="preserve" width="8.4666mm" height="8.4666mm" version="1.1" style="shape-rendering:geometricPrecision; text-rendering:geometricPrecision; image-rendering:optimizeQuality; fill-rule:evenodd; clip-rule:evenodd"
viewBox="0 0 846.66 846.66"
 xmlns:xlink="http://www.w3.org/1999/xlink">
 <defs>
  <style type="text/css">
   <![CDATA[
    .fil0 {fill:#1F1B20}
    .fil1 {fill:#1F1B20}
    .fil2 {fill:black;fill-rule:nonzero}
   ]]>
  </style>
 </defs>
 <g id="Layer_x0020_1">
  <metadata id="CorelCorpID_0Corel-Layer"/>
  <g id="_2833192264928">
   <path class="fil0" d="M215.71 517.64c52.13,0 94.38,-42.25 94.38,-94.36 0,-52.13 -42.25,-94.37 -94.38,-94.37 -52.1,0 -94.35,42.24 -94.35,94.37 0,52.11 42.25,94.36 94.35,94.36zm0.02 -14.9c43.89,0 79.46,-35.58 79.46,-79.48 0,-43.88 -35.57,-79.46 -79.46,-79.46 -43.9,0 -79.47,35.58 -79.47,79.46 0,43.9 35.57,79.48 79.47,79.48z"/>
   <polygon class="fil1" points="205.8,359.69 205.8,427.87 205.81,427.87 205.81,436.44 273.99,436.44 273.99,421.54 220.7,421.54 220.7,359.69 "/>
  </g>
  <g id="_2833192264544">
   <path class="fil2" d="M372.75 404.66l0 -30.44 69.33 0 0 -21.22 -91.9 0 0 74.27c10.36,-1.2 30.64,-1.99 39.95,-1.99 19.87,0 32.07,8.8 32.07,23.22 0,15.62 -12.2,25.22 -32.49,25.22 -13.65,0 -28.76,-5.4 -40.97,-14.81l-9.94 19.21c14.9,9.62 35.8,16.02 53.61,16.02 33.95,0 55.89,-18.62 55.89,-47.25 0,-24.42 -21.12,-42.43 -54.03,-42.43 -5.58,0 -15.12,0 -21.52,0.2z"/>
   <path id="_1" class="fil2" d="M523.22 352.41c-35.19,0 -54.64,25.22 -54.64,70.66 0,45.64 19.45,70.86 54.64,70.86 34.99,0 54.44,-25.22 54.44,-70.86 0,-45.44 -19.45,-70.66 -54.44,-70.66zm0 18.41c20.08,0 30.22,16.62 30.22,52.25 0,35.63 -10.14,52.45 -30.22,52.45 -20.29,0 -30.42,-16.82 -30.42,-52.45 0,-35.63 10.13,-52.25 30.42,-52.25z"/>
   <path id="_2" class="fil2" d="M694.46 421.81c-13.38,0 -23.18,5.2 -27.87,17.08 -3.46,-10.81 -12.42,-17.08 -25.53,-17.08 -12.15,0 -21.52,4.27 -26.63,14.27l0 -13.73 -15.73 0 0 70.99 15.73 0 0 -35.1c0,-12.41 7.73,-21.75 20.42,-22.16 10.76,0 17.25,6.55 17.25,17.36l0 39.9 15.86 0 0 -35.1c0,-12.41 7.59,-21.75 20.15,-22.16 10.76,0 17.39,6.55 17.39,17.36l0 39.9 15.87 0 0 -44.17c0,-16.95 -10.08,-27.36 -26.91,-27.36z"/>
  </g>
 </g>
</svg>
