<?xml version="1.0" encoding="UTF-8"?>
<!DOCTYPE svg PUBLIC "-//W3C//DTD SVG 1.1//EN" "http://www.w3.org/Graphics/SVG/1.1/DTD/svg11.dtd">
<!-- Creator: CorelDRAW 2017 -->
<svg xmlns="http://www.w3.org/2000/svg" xml:space="preserve" width="8.47mm" height="8.47mm" version="1.1" style="shape-rendering:geometricPrecision; text-rendering:geometricPrecision; image-rendering:optimizeQuality; fill-rule:evenodd; clip-rule:evenodd"
viewBox="0 0 847 847"
 xmlns:xlink="http://www.w3.org/1999/xlink">
 <defs>
  <style type="text/css">
   <![CDATA[
    .fil0 {fill:black}
   ]]>
  </style>
 </defs>
 <g id="Layer_x0020_1">
  <metadata id="CorelCorpID_0Corel-Layer"/>
  <path class="fil0" d="M295.51 318.93c-20,32.03 -27.42,65.79 -28.18,101.19 -0.09,4.12 -0.09,8.27 -0.01,12.43 0.9,45.68 -53.02,48.56 -55.1,0.21 -4.39,-101.42 89.41,-211.5 139.93,-248.68 61.44,-61.28 122.08,7.45 96.9,53.58 -10.59,19.41 -10.43,44.96 -11.53,66.11 -1.39,26.87 -0.72,52.32 0.66,76.22l113.79 0 0.56 0.01c22.09,-0.35 41.42,15.58 44,37.1l23.95 199.66c2.74,22.9 -14.49,43.78 -38.3,46.43l-2.76 0.31c-23.81,2.63 -45.54,-13.94 -48.28,-36.83l-18.02 -150.2 -65.07 0c24.55,118.12 20.5,227.08 -19.17,324.64 -9.03,22.21 -32.69,28.49 -55.13,20.07 -23.81,-8.95 -26.27,-28.39 -19.14,-53.75 25.71,-91.54 27.13,-193.71 2.99,-290.96l-11.46 0c-17.83,0 -33.22,-12.02 -39.68,-28.99 -12.02,-23.63 -17.71,-75.03 -10.95,-128.55zm268.32 42.06c39.35,0 71.25,-31.89 71.25,-71.25 0,-39.34 -31.9,-71.24 -71.25,-71.24 -39.34,0 -71.24,31.9 -71.24,71.24 0,39.36 31.9,71.25 71.24,71.25zm-62.72 -172.84c43.53,0 78.8,-37.18 78.8,-83.02 0,-45.85 -35.27,-83.02 -78.8,-83.02 -43.52,0 -78.8,37.17 -78.8,83.02 0,45.84 35.28,83.02 78.8,83.02z"/>
 </g>
</svg>
