<?xml version="1.0" encoding="UTF-8"?>
<!DOCTYPE svg PUBLIC "-//W3C//DTD SVG 1.1//EN" "http://www.w3.org/Graphics/SVG/1.1/DTD/svg11.dtd">
<!-- Creator: CorelDRAW 2017 -->
<svg xmlns="http://www.w3.org/2000/svg" xml:space="preserve" width="8.4666mm" height="8.4666mm" version="1.1" style="shape-rendering:geometricPrecision; text-rendering:geometricPrecision; image-rendering:optimizeQuality; fill-rule:evenodd; clip-rule:evenodd"
viewBox="0 0 846.66 846.66"
 xmlns:xlink="http://www.w3.org/1999/xlink">
 <defs>
  <style type="text/css">
   <![CDATA[
    .fil1 {fill:none}
    .fil2 {fill:black}
    .fil0 {fill:black}
   ]]>
  </style>
 </defs>
 <g id="Layer_x0020_1">
  <metadata id="CorelCorpID_0Corel-Layer"/>
  <g id="_2833246686544">
   <g>
    <path class="fil0" d="M166.06 648.34c-25.76,-44.02 19.65,-107.19 77.2,-89.08 19.59,6.17 50.81,23.53 74.07,-7.83 25.98,-35.03 -30.79,-73.42 16.98,-121.7 24.56,-24.82 53.84,-18.24 75.87,-10.05 3.47,1.53 4.21,5.97 1.66,9.92 -2.55,3.95 -7.43,5.92 -10.9,4.4 -14.4,-5.36 -34.53,-12.1 -52.37,0.86 -51.27,37.27 29.21,94.54 -35.68,139.14 -30.82,21.18 -54.93,7.2 -77.73,0.01 -46.87,-14.78 -72.24,34.99 -55.92,63.01 2.3,2.86 1.22,7.71 -2.42,10.84 -3.64,3.12 -8.46,3.34 -10.76,0.48z"/>
   </g>
   <path class="fil1" d="M172.65 642.68c-11.61,-14.43 -6.99,-46.02 12.21,-64.73 13.92,-13.57 35.11,-21.04 65.23,-7.04 24.58,11.42 50.52,6.93 65.83,-7.91 45.7,-44.29 -23.3,-81.22 23.27,-128.76 14.71,-15.01 38.65,-19.58 66.37,-7.4"/>
   <g>
    <path class="fil2" d="M401.17 434.09c24.08,7.67 52.44,6.01 74.95,-20.61 39.64,-46.9 -27.16,-95.34 24.18,-129.37 42.64,-28.26 83.94,47.81 150.68,-44.34 7.25,-10.02 7.9,-11.7 10.97,-22.33 0.52,-4.19 -2.51,-7.1 -6.79,-6.49 -4.27,0.6 -8.16,4.5 -8.69,8.69 -1.73,5.61 -3.54,8.33 -7.34,13.57 -63.34,87.37 -95.1,-8.55 -154.98,46.76 -46.8,43.23 6.02,86.47 -15.42,120.96 -14.68,23.62 -40.11,24.55 -58.76,18.66 -3.56,-1.39 -8.41,0.74 -10.84,4.74 -2.43,4.01 -1.51,8.38 2.04,9.76z"/>
   </g>
   <path class="fil1" d="M405.57 426.84c3.11,1.21 8.94,2.77 12.62,3.54 14.57,2.99 33.97,-3.37 47.4,-15.56 14.41,-13.05 23.17,-33.75 11.04,-64.68 -9.9,-25.23 -3.81,-50.85 11.94,-65.22 47,-42.88 81.32,22.41 131.61,-21.13 8.8,-7.62 32.42,-32.41 34.03,-45.25"/>
   <polygon class="fil2" points="672.5,196.25 647.37,201.89 622.24,207.52 648.85,227.6 675.46,247.67 673.98,221.96 "/>
  </g>
 </g>
</svg>
