<?xml version="1.0" encoding="UTF-8"?>
<!DOCTYPE svg PUBLIC "-//W3C//DTD SVG 1.1//EN" "http://www.w3.org/Graphics/SVG/1.1/DTD/svg11.dtd">
<!-- Creator: CorelDRAW 2017 -->
<svg xmlns="http://www.w3.org/2000/svg" xml:space="preserve" width="8.47mm" height="8.47mm" version="1.1" style="shape-rendering:geometricPrecision; text-rendering:geometricPrecision; image-rendering:optimizeQuality; fill-rule:evenodd; clip-rule:evenodd"
viewBox="0 0 847 847"
 xmlns:xlink="http://www.w3.org/1999/xlink">
 <defs>
  <style type="text/css">
   <![CDATA[
    .fil0 {fill:black}
   ]]>
  </style>
 </defs>
 <g id="Layer_x0020_1">
  <metadata id="CorelCorpID_0Corel-Layer"/>
  <path class="fil0" d="M301.95 291.21c-22.65,74.59 -22.79,116.94 -22.42,169.57 0.12,17.17 -14.83,37.09 -28.44,34.76 -13.71,-2.35 -16.08,-8.74 -18.59,-25.43 -11.03,-73.42 -0.48,-283.23 106.64,-286.04 20.16,-0.53 6,9.49 24.29,14.67 26.65,7.57 51.62,7.83 67.53,2.4 12.79,-4.37 16.27,-13.81 21.39,-14.12 21.09,-1.36 37.2,1.15 56.67,11.35 15.38,8.03 28.95,23.92 40.71,44.15 34.87,60.08 65.79,169.5 68.27,214.09 2.41,43.41 -48.11,33.99 -55.54,-5.16 -10.25,-54.02 -19.39,-87.6 -59.62,-158.44 -8.04,37.9 -33.39,111.5 1.74,137.45l44.91 34.27c9.35,7.13 16.73,16.06 19.11,27.11l0.04 0.17 0.02 0.04c0.62,2.75 0.97,5.61 0.95,8.54l-0.95 194.83 -1.41 19.18c-0.04,0.6 0.82,0.95 1.28,1.46 9.83,11.19 15.78,25.85 15.78,41.9 0,35.07 -28.43,63.5 -63.49,63.5 -35.07,0 -63.5,-32.59 -63.5,-63.5 0,-30.9 11.72,-41.56 35.12,-50.93l-1.65 -156.1 -67.22 -48.21c-9.8,-5.43 -25.5,-5.3 -34.41,0.71l-3.68 252.9c-0.48,32.28 -14.25,65.13 -37.17,65.13 -30.64,0.01 -44.28,-32.15 -44.36,-58.68 -0.5,-155.65 7.28,-318.25 -2,-471.57z"/>
  <ellipse class="fil0" cx="399.85" cy="99.43" rx="70.24" ry="73.99"/>
 </g>
</svg>
