<?xml version="1.0" encoding="UTF-8"?>
<!DOCTYPE svg PUBLIC "-//W3C//DTD SVG 1.1//EN" "http://www.w3.org/Graphics/SVG/1.1/DTD/svg11.dtd">
<!-- Creator: CorelDRAW 2017 -->
<svg xmlns="http://www.w3.org/2000/svg" xml:space="preserve" width="8.47mm" height="8.47mm" version="1.1" style="shape-rendering:geometricPrecision; text-rendering:geometricPrecision; image-rendering:optimizeQuality; fill-rule:evenodd; clip-rule:evenodd"
viewBox="0 0 847 847"
 xmlns:xlink="http://www.w3.org/1999/xlink">
 <defs>
  <style type="text/css">
   <![CDATA[
    .fil0 {fill:black}
   ]]>
  </style>
 </defs>
 <g id="Layer_x0020_1">
  <metadata id="CorelCorpID_0Corel-Layer"/>
  <path class="fil0" d="M30.81 770.46c-39.66,-67.77 30.25,-165.02 118.85,-137.14 30.16,9.5 78.22,36.22 114.03,-12.06 40,-53.92 -47.4,-113.02 26.14,-187.35 72.62,-73.37 153.67,41.36 206.94,-44.34 33.01,-53.1 -48.31,-119.66 23.74,-186.22 92.18,-85.15 141.08,62.52 238.59,-71.98l9.3 -12.92 -35.3 -26.63 38.69 -8.67 38.68 -8.68 2.28 39.58 2.28 39.58 -30.68 -23.14c-2.57,4.48 -5.14,8.41 -7.01,10.98 -102.74,141.86 -166.32,24.75 -231.97,68.26 -79.04,52.39 23.8,126.96 -37.22,199.16 -73.91,87.44 -140.64,-7.59 -196.37,32.92 -78.93,57.37 44.97,145.54 -54.92,214.2 -47.45,32.61 -84.57,11.09 -119.67,0.02 -72.16,-22.76 -111.21,53.86 -86.09,97l-20.29 17.43z"/>
 </g>
</svg>
