<?xml version="1.0" encoding="UTF-8"?>
<!DOCTYPE svg PUBLIC "-//W3C//DTD SVG 1.1//EN" "http://www.w3.org/Graphics/SVG/1.1/DTD/svg11.dtd">
<!-- Creator: CorelDRAW 2017 -->
<svg xmlns="http://www.w3.org/2000/svg" xml:space="preserve" width="8.47mm" height="8.47mm" version="1.1" style="shape-rendering:geometricPrecision; text-rendering:geometricPrecision; image-rendering:optimizeQuality; fill-rule:evenodd; clip-rule:evenodd"
viewBox="0 0 847 847"
 xmlns:xlink="http://www.w3.org/1999/xlink">
 <defs>
  <style type="text/css">
   <![CDATA[
    .fil1 {fill:none}
    .fil0 {fill:black}
   ]]>
  </style>
 </defs>
 <g id="Layer_x0020_1">
  <metadata id="CorelCorpID_0Corel-Layer"/>
  <path class="fil0" d="M172.75 382.52c91.64,-68.98 210.9,96.23 272.76,192.59 69.93,-46.11 138.58,-83.78 166.02,-185.55 19.75,-73.24 94.04,-77.61 127.11,-31.13 8.18,-7.14 21.49,-19.38 22.78,-23.67 4.09,-13.54 -7.15,-32.44 -16.81,-53.17 -21.9,29.66 -48.13,38.39 -83.94,42.09 -0.33,0.07 -0.64,0.1 -0.98,0.1 -0.33,0 -0.64,-0.03 -0.95,-0.1l-20.5 -2.05c-82.62,-16.83 -113.75,-119.66 -53.82,-179.59 70.01,-70.01 172.72,-14.06 182.03,63.97 41.28,25.02 77.43,138.57 61.75,164.68 -26.02,43.36 -55.67,80.5 -84.65,97.8 -32.99,85.82 -140.48,192.59 -221.89,243.34 -155.23,101.7 -183.31,-135.69 -291.25,-211.36 -36.2,44.96 -71.25,110.54 -91.75,156.05 0,34.09 -27.64,61.73 -61.73,61.73 -34.09,0 -61.73,-27.64 -61.73,-61.73 26.94,-87.9 78.59,-214.56 157.55,-274z"/>
  <path class="fil1" d="M76.93 656.52c0,-46.08 120.11,-231.92 142,-228.9 64.21,8.87 147.76,141.97 189.87,203.34 16.39,23.9 28.72,78.76 89.94,21.89"/>
 </g>
</svg>
