<?xml version="1.0" encoding="UTF-8"?>
<!DOCTYPE svg PUBLIC "-//W3C//DTD SVG 1.1//EN" "http://www.w3.org/Graphics/SVG/1.1/DTD/svg11.dtd">
<!-- Creator: CorelDRAW 2017 -->
<svg xmlns="http://www.w3.org/2000/svg" xml:space="preserve" width="8.4666mm" height="8.4666mm" version="1.1" style="shape-rendering:geometricPrecision; text-rendering:geometricPrecision; image-rendering:optimizeQuality; fill-rule:evenodd; clip-rule:evenodd"
viewBox="0 0 846.66 846.66"
 xmlns:xlink="http://www.w3.org/1999/xlink">
 <defs>
  <style type="text/css">
   <![CDATA[
    .fil0 {fill:black}
   ]]>
  </style>
 </defs>
 <g id="Warstwa_x0020_1">
  <metadata id="CorelCorpID_0Corel-Layer"/>
  <g id="_902699520">
   <circle class="fil0" cx="601.76" cy="556.69" r="146.63"/>
   <path class="fil0" d="M337.61 81.66l122.62 0 -117.1 314.31c-0.01,8.79 9,1.17 11.61,8.79 20.53,24.14 -22.86,174.5 111.2,309.49 16.2,29.98 3.63,72.87 -65.58,37.04l0 0 -23.73 3.54 -1.63 -26.66 -6.97 -6.86 -25.12 0.93 1.24 -24.44 -4.77 -4.7 -24.5 2.24 -0.1 -26.46 -147.84 -143.33 -24.99 -1.03 0.25 -27.43 -6.39 -7.36 -28.3 0.69 3.98 -27.04c0.12,-0.83 -0.95,-1.38 -1.39,-2.04 -21.2,-31.77 -12.57,-57.25 17.76,-77.93 8.11,-5.52 24.34,-15.21 34.59,-21.66 17.49,-11 38.44,-34.35 45.18,-44.53 16.6,-25 14.03,-22.62 27.73,-23.27 1.55,-0.07 8.39,-0.35 9.31,0.94 2.11,2.99 0.67,14.91 7.59,2.85l85.35 -216.08z"/>
  </g>
 </g>
</svg>
