<?xml version="1.0" encoding="UTF-8"?>
<!DOCTYPE svg PUBLIC "-//W3C//DTD SVG 1.1//EN" "http://www.w3.org/Graphics/SVG/1.1/DTD/svg11.dtd">
<!-- Creator: CorelDRAW 2017 -->
<svg xmlns="http://www.w3.org/2000/svg" xml:space="preserve" width="8.47mm" height="8.47mm" version="1.1" style="shape-rendering:geometricPrecision; text-rendering:geometricPrecision; image-rendering:optimizeQuality; fill-rule:evenodd; clip-rule:evenodd"
viewBox="0 0 847 847"
 xmlns:xlink="http://www.w3.org/1999/xlink">
 <defs>
  <style type="text/css">
   <![CDATA[
    .fil0 {fill:black}
   ]]>
  </style>
 </defs>
 <g id="Layer_x0020_1">
  <metadata id="CorelCorpID_0Corel-Layer"/>
  <g id="_891995168">
   <path class="fil0" d="M368.1 196.77c50.18,0 90.86,-38.37 90.86,-85.69 0,-47.32 -40.68,-85.67 -90.86,-85.67 -50.18,0 -90.86,38.35 -90.86,85.67 0,47.32 40.68,85.69 90.86,85.69z"/>
   <path class="fil0" d="M343.55 470.53c-8.06,-36.8 48.81,-117.27 50.57,-202.31 -11.04,-68.3 -95.6,-72.95 -133.65,-29.15 -34.78,80.75 -100.48,212.44 -41.09,299.58 13.77,20.2 16.62,22.38 40.74,26.82 52.43,9.7 129.27,9.14 174.21,18.65l-47.09 191.93c-11.26,35.55 76.12,78.28 87.69,6.29 5.42,-34.7 39.66,-145.99 50.54,-218.52 6.11,-40.81 -0.74,-66.7 -29.35,-69.87l-152.57 -23.42z"/>
   <path class="fil0" d="M283.83 290.99l0 0c-0.3,-18.42 20.52,-47.09 41.73,-45.15 120.14,10.94 202.88,10.55 277.03,7.23 21.28,-0.96 48.78,11.52 49.08,29.95 0.29,18.54 -20.63,31.77 -41.54,33.64 -168.09,14.96 -317.85,1.19 -326.32,-6.31 -14.95,-13.26 0.31,-0.94 0.02,-19.36z"/>
  </g>
 </g>
</svg>
