<?xml version="1.0" encoding="UTF-8"?>
<!DOCTYPE svg PUBLIC "-//W3C//DTD SVG 1.1//EN" "http://www.w3.org/Graphics/SVG/1.1/DTD/svg11.dtd">
<!-- Creator: CorelDRAW 2017 -->
<svg xmlns="http://www.w3.org/2000/svg" xml:space="preserve" width="8.47mm" height="8.47mm" version="1.1" style="shape-rendering:geometricPrecision; text-rendering:geometricPrecision; image-rendering:optimizeQuality; fill-rule:evenodd; clip-rule:evenodd"
viewBox="0 0 847 847"
 xmlns:xlink="http://www.w3.org/1999/xlink">
 <defs>
  <style type="text/css">
   <![CDATA[
    .fil0 {fill:#1F1B20}
   ]]>
  </style>
 </defs>
 <g id="Layer_x0020_1">
  <metadata id="CorelCorpID_0Corel-Layer"/>
  <g id="_2141596858768">
   <rect class="fil0" x="334.42" y="22.13" width="26.71" height="802.64"/>
   <rect class="fil0" x="499.34" y="83.36" width="26.71" height="741.43"/>
  </g>
  <polygon class="fil0" points="512.71,22.14 533.96,52.75 555.23,83.34 512.71,83.34 470.2,83.34 491.45,52.75 "/>
  <rect class="fil0" x="291.92" y="22.11" width="62.21" height="14.86"/>
  <rect class="fil0" x="291.92" y="68.47" width="62.21" height="14.86"/>
  <rect class="fil0" x="291.92" y="114.81" width="62.21" height="14.86"/>
  <rect class="fil0" x="291.92" y="161.16" width="62.21" height="14.86"/>
  <rect class="fil0" x="291.92" y="207.48" width="62.21" height="14.86"/>
  <rect class="fil0" x="291.92" y="253.84" width="62.21" height="14.86"/>
  <rect class="fil0" x="291.92" y="300.15" width="62.21" height="14.86"/>
  <rect class="fil0" x="291.92" y="346.5" width="62.21" height="14.86"/>
  <rect class="fil0" x="291.92" y="392.84" width="62.21" height="14.86"/>
  <rect class="fil0" x="291.92" y="439.18" width="62.21" height="14.86"/>
  <rect class="fil0" x="291.92" y="485.53" width="62.21" height="14.86"/>
  <rect class="fil0" x="291.92" y="531.86" width="62.21" height="14.86"/>
  <rect class="fil0" x="291.92" y="578.2" width="62.21" height="14.86"/>
  <rect class="fil0" x="291.92" y="624.56" width="62.21" height="14.86"/>
  <rect class="fil0" x="291.92" y="670.87" width="62.21" height="14.86"/>
  <rect class="fil0" x="291.92" y="717.21" width="62.21" height="14.86"/>
  <rect class="fil0" x="291.92" y="763.55" width="62.21" height="14.86"/>
  <rect class="fil0" x="291.92" y="809.89" width="62.21" height="14.86"/>
 </g>
</svg>
