<?xml version="1.0" encoding="UTF-8"?>
<!DOCTYPE svg PUBLIC "-//W3C//DTD SVG 1.1//EN" "http://www.w3.org/Graphics/SVG/1.1/DTD/svg11.dtd">
<!-- Creator: CorelDRAW 2017 -->
<svg xmlns="http://www.w3.org/2000/svg" xml:space="preserve" width="8.4666mm" height="8.4666mm" version="1.1" style="shape-rendering:geometricPrecision; text-rendering:geometricPrecision; image-rendering:optimizeQuality; fill-rule:evenodd; clip-rule:evenodd"
viewBox="0 0 846.66 846.66"
 xmlns:xlink="http://www.w3.org/1999/xlink">
 <defs>
  <style type="text/css">
   <![CDATA[
    .fil0 {fill:black}
    .fil1 {fill:black;fill-rule:nonzero}
   ]]>
  </style>
 </defs>
 <g id="Layer_x0020_1">
  <metadata id="CorelCorpID_0Corel-Layer"/>
  <polygon class="fil0" points="701.66,475.75 688.33,466.81 674.99,457.86 694.99,452.2 714.98,446.54 708.32,461.14 "/>
  <rect class="fil0" x="353.49" y="494.31" width="369.93" height="14.61"/>
  <rect class="fil0" x="327.17" y="468.44" width="36.36" height="7.3"/>
  <rect class="fil0" x="259.24" y="468.44" width="41.72" height="7.3"/>
  <rect class="fil0" x="191.32" y="468.44" width="41.72" height="7.3"/>
  <rect class="fil0" x="123.4" y="468.77" width="41.72" height="7.3"/>
  <path class="fil1" d="M693.07 465.98c-8.98,-35.5 -30.63,-66.41 -60.24,-88.29 -28.98,-21.43 -65.63,-34.22 -105.49,-34.22 -38.56,0 -74.41,14.92 -103.22,38.23 -30.42,24.6 -53,58.49 -62.73,94.04l-12.03 0c9.89,-38.62 34.16,-75.61 67.14,-102.28 30.84,-24.94 69.31,-40.92 110.84,-40.92 42.54,0 81.69,13.68 112.7,36.61 31.65,23.4 54.8,56.41 64.39,94.31l-11.36 2.52z"/>
 </g>
</svg>
