<?xml version="1.0" encoding="UTF-8" standalone="no"?>
<!-- Creator: CorelDRAW 2017 -->

<svg
   xmlns:dc="http://purl.org/dc/elements/1.1/"
   xmlns:cc="http://creativecommons.org/ns#"
   xmlns:rdf="http://www.w3.org/1999/02/22-rdf-syntax-ns#"
   xmlns:svg="http://www.w3.org/2000/svg"
   xmlns="http://www.w3.org/2000/svg"
   xmlns:sodipodi="http://sodipodi.sourceforge.net/DTD/sodipodi-0.dtd"
   xmlns:inkscape="http://www.inkscape.org/namespaces/inkscape"
   xml:space="preserve"
   width="8.47mm"
   height="8.47mm"
   version="1.1"
   style="shape-rendering:geometricPrecision; text-rendering:geometricPrecision; image-rendering:optimizeQuality; fill-rule:evenodd; clip-rule:evenodd"
   viewBox="0 0 847 847"
   id="svg51"
   sodipodi:docname="skok_wzwyz.svg"
   inkscape:version="0.92.1 r15371"><metadata
     id="metadata55"><rdf:RDF><cc:Work
         rdf:about=""><dc:format>image/svg+xml</dc:format><dc:type
           rdf:resource="http://purl.org/dc/dcmitype/StillImage" /></cc:Work></rdf:RDF></metadata><sodipodi:namedview
     pagecolor="#ffffff"
     bordercolor="#666666"
     borderopacity="1"
     objecttolerance="10"
     gridtolerance="10"
     guidetolerance="10"
     inkscape:pageopacity="0"
     inkscape:pageshadow="2"
     inkscape:window-width="1920"
     inkscape:window-height="1051"
     id="namedview53"
     showgrid="false"
     inkscape:zoom="7.3720974"
     inkscape:cx="16.0063"
     inkscape:cy="16.0063"
     inkscape:window-x="-9"
     inkscape:window-y="-9"
     inkscape:window-maximized="1"
     inkscape:current-layer="svg51" /><defs
     id="defs4"><style
       type="text/css"
       id="style2"><![CDATA[
    .fil0 {fill:#1F1B20}
   ]]></style></defs><path
     style="fill:#1f1b20;stroke-width:0.03779528"
     d="M 11.033203 0.8359375 L 11.033203 1.3964844 L 12.638672 1.3964844 L 12.638672 2.5878906 L 11.033203 2.5878906 L 11.033203 3.1503906 L 12.638672 3.1503906 L 12.638672 4.3398438 L 11.033203 4.3398438 L 11.033203 4.9003906 L 12.638672 4.9003906 L 12.638672 6.0917969 L 11.033203 6.0917969 L 11.033203 6.6523438 L 12.638672 6.6523438 L 12.638672 7.8417969 L 11.033203 7.8417969 L 11.033203 8.4042969 L 12.638672 8.4042969 L 12.638672 9.59375 L 11.033203 9.59375 L 11.033203 10.15625 L 12.638672 10.15625 L 12.638672 11.34375 L 11.033203 11.34375 L 11.033203 11.90625 L 12.638672 11.90625 L 12.638672 13.095703 L 11.033203 13.095703 L 11.033203 13.658203 L 12.638672 13.658203 L 12.638672 14.847656 L 11.033203 14.847656 L 11.033203 15.408203 L 12.638672 15.408203 L 12.638672 16.599609 L 11.033203 16.599609 L 11.033203 17.160156 L 12.638672 17.160156 L 12.638672 18.351562 L 11.033203 18.351562 L 11.033203 18.912109 L 12.638672 18.912109 L 12.638672 20.101562 L 11.033203 20.101562 L 11.033203 20.664062 L 12.638672 20.664062 L 12.638672 21.853516 L 11.033203 21.853516 L 11.033203 22.414062 L 12.638672 22.414062 L 12.638672 23.605469 L 11.033203 23.605469 L 11.033203 24.167969 L 12.638672 24.167969 L 12.638672 25.355469 L 11.033203 25.355469 L 11.033203 25.917969 L 12.638672 25.917969 L 12.638672 27.107422 L 11.033203 27.107422 L 11.033203 27.667969 L 12.638672 27.667969 L 12.638672 28.859375 L 11.033203 28.859375 L 11.033203 29.419922 L 12.638672 29.419922 L 12.638672 30.609375 L 11.033203 30.609375 L 11.033203 31.171875 L 12.638672 31.171875 L 13.384766 31.171875 L 13.648438 31.171875 L 13.648438 0.8359375 L 13.384766 0.8359375 L 11.033203 0.8359375 z M 19.378906 0.8359375 L 18.574219 1.9941406 L 17.771484 3.1503906 L 18.873047 3.1503906 L 18.873047 31.173828 L 19.882812 31.173828 L 19.882812 3.1503906 L 20.984375 3.1503906 L 20.181641 1.9941406 L 19.378906 0.8359375 z "
     transform="scale(26.458332)"
     id="rect7" /></svg>