<?xml version="1.0" encoding="UTF-8"?>
<!DOCTYPE svg PUBLIC "-//W3C//DTD SVG 1.1//EN" "http://www.w3.org/Graphics/SVG/1.1/DTD/svg11.dtd">
<!-- Creator: CorelDRAW 2017 -->
<svg xmlns="http://www.w3.org/2000/svg" xml:space="preserve" width="8.47mm" height="8.47mm" version="1.1" style="shape-rendering:geometricPrecision; text-rendering:geometricPrecision; image-rendering:optimizeQuality; fill-rule:evenodd; clip-rule:evenodd"
viewBox="0 0 847 847"
 xmlns:xlink="http://www.w3.org/1999/xlink">
 <defs>
  <style type="text/css">
   <![CDATA[
    .fil0 {fill:black}
   ]]>
  </style>
 </defs>
 <g id="Layer_x0020_1">
  <metadata id="CorelCorpID_0Corel-Layer"/>
  <g id="_2401417617888">
   <polygon class="fil0" points="196.34,608.85 226.67,659.26 257,709.68 196.34,709.68 135.68,709.68 166.02,659.26 "/>
   <polygon class="fil0" points="339.28,441.67 369.6,492.08 399.93,542.47 339.28,542.47 278.62,542.47 308.95,492.08 "/>
   <polygon class="fil0" points="494.44,265.14 524.77,315.55 555.1,365.96 494.44,365.96 433.8,365.96 464.13,315.55 "/>
   <polygon class="fil0" points="647.41,92.68 677.74,143.09 708.07,193.5 647.41,193.5 586.75,193.5 617.08,143.09 "/>
  </g>
  <path class="fil0" d="M551.23 184.6c26.88,62.76 87.67,150.89 42.36,215.32 -85.61,121.69 -240.56,-49.17 -323.98,10.43 -75.21,53.73 -13.46,143.13 13.63,198.05 64.77,131.34 -37.55,217.96 -144.5,183.61 -6.78,14.14 -21.23,23.9 -37.96,23.9 -23.24,0 -42.08,-18.84 -42.08,-42.09 0,-23.24 18.84,-42.08 42.08,-42.08 21.51,0 39.23,16.12 41.77,36.94 84.68,28.36 177.57,-32.94 119.78,-150 -28.5,-57.77 -76.51,-122.3 -38.1,-192.88 80.9,-148.72 268.74,75.75 350.14,-40.02 30.74,-43.7 -6.19,-117.24 -28.78,-157.91 -28.79,-58.24 -43.83,-113.54 -6.24,-172.3 62.18,-61.34 130.93,-27.63 204.04,0.37 6.15,2.21 9.5,9.01 7.47,15.2 -2.02,6.2 -8.65,9.42 -14.8,7.21 -13.19,-5.04 -6.61,-2.36 -19.75,-8.02l-57.38 -20c-106.35,-23.45 -133.27,40.54 -107.7,134.27z"/>
  <polygon class="fil0" points="539.35,55.57 539.35,55.55 539.35,55.57 "/>
 </g>
</svg>
