<?xml version="1.0" encoding="UTF-8" standalone="no"?>
<!-- Creator: CorelDRAW 2017 -->

<svg
   xmlns:dc="http://purl.org/dc/elements/1.1/"
   xmlns:cc="http://creativecommons.org/ns#"
   xmlns:rdf="http://www.w3.org/1999/02/22-rdf-syntax-ns#"
   xmlns:svg="http://www.w3.org/2000/svg"
   xmlns="http://www.w3.org/2000/svg"
   xmlns:sodipodi="http://sodipodi.sourceforge.net/DTD/sodipodi-0.dtd"
   xmlns:inkscape="http://www.inkscape.org/namespaces/inkscape"
   xml:space="preserve"
   width="8.47mm"
   height="8.47mm"
   version="1.1"
   style="shape-rendering:geometricPrecision; text-rendering:geometricPrecision; image-rendering:optimizeQuality; fill-rule:evenodd; clip-rule:evenodd"
   viewBox="0 0 847 847"
   id="svg18"
   sodipodi:docname="sprint_100m.svg"
   inkscape:version="0.92.1 r15371"><metadata
     id="metadata22"><rdf:RDF><cc:Work
         rdf:about=""><dc:format>image/svg+xml</dc:format><dc:type
           rdf:resource="http://purl.org/dc/dcmitype/StillImage" /></cc:Work></rdf:RDF></metadata><sodipodi:namedview
     pagecolor="#ffffff"
     bordercolor="#666666"
     borderopacity="1"
     objecttolerance="10"
     gridtolerance="10"
     guidetolerance="10"
     inkscape:pageopacity="0"
     inkscape:pageshadow="2"
     inkscape:window-width="1920"
     inkscape:window-height="1051"
     id="namedview20"
     showgrid="false"
     inkscape:zoom="20.85144"
     inkscape:cx="13.922916"
     inkscape:cy="10.943168"
     inkscape:window-x="-9"
     inkscape:window-y="-9"
     inkscape:window-maximized="1"
     inkscape:current-layer="svg18" /><defs
     id="defs4"><style
       type="text/css"
       id="style2"><![CDATA[
    .fil1 {fill:black}
    .fil0 {fill:black;fill-rule:nonzero}
   ]]></style></defs><path
     style="fill:#000000;fill-rule:nonzero;stroke-width:0.03779528"
     d="M 5.4238281 11.283203 C 4.5870407 11.283203 3.807954 11.491321 3.0898438 11.908203 C 2.3698437 12.325463 1.8008916 12.904373 1.3847656 13.640625 C 0.96826167 14.379523 0.75976563 15.179347 0.75976562 16.042969 C 0.75976562 17.338969 1.2189227 18.443469 2.1328125 19.355469 C 3.0467023 20.267847 4.1675897 20.724609 5.4960938 20.724609 C 6.8094796 20.724609 7.9204725 20.266145 8.8339844 19.349609 C 9.7456065 18.433452 10.203125 17.316787 10.203125 16 C 10.203125 14.67263 9.7439679 13.554327 8.8300781 12.646484 C 7.9161883 11.738642 6.7806786 11.283203 5.4238281 11.283203 z M 5.4628906 12.160156 C 6.1390481 12.160156 6.7791586 12.333105 7.3808594 12.679688 C 7.9821822 13.025892 8.4485882 13.486878 8.7792969 14.0625 C 9.1107615 14.6385 9.2792969 15.284472 9.2792969 15.998047 C 9.2792969 16.716157 9.1107615 17.366542 8.7792969 17.953125 C 8.4485882 18.53933 7.9879171 19.003907 7.3945312 19.341797 C 6.8034131 19.679687 6.1598355 19.847656 5.4628906 19.847656 C 4.4223866 19.847656 3.5299133 19.480393 2.7910156 18.744141 C 2.052118 18.0094 1.6835938 17.10722 1.6835938 16.041016 C 1.6835938 15.318748 1.8502394 14.66622 2.1835938 14.078125 C 2.5184599 13.491542 2.982786 13.025892 3.5761719 12.679688 C 4.1714475 12.333105 4.8010953 12.160156 5.4628906 12.160156 z M 4.984375 12.822266 L 4.984375 16.234375 L 4.9863281 16.234375 L 4.9863281 16.662109 L 8.3964844 16.662109 L 8.3964844 15.917969 L 5.7304688 15.917969 L 5.7304688 12.822266 L 4.984375 12.822266 z M 17.912109 12.916016 C 16.503101 12.916016 15.724609 14.07058 15.724609 16.152344 C 15.724609 18.243556 16.503101 19.398438 17.912109 19.398438 C 19.312424 19.398438 20.091797 18.243556 20.091797 16.152344 C 20.091797 14.07058 19.312424 12.916016 17.912109 12.916016 z M 23.027344 12.916016 C 21.617958 12.916016 20.837891 14.07058 20.837891 16.152344 C 20.837891 18.243556 21.617958 19.398438 23.027344 19.398438 C 24.428415 19.398438 25.207031 18.243556 25.207031 16.152344 C 25.207031 14.07058 24.428415 12.916016 23.027344 12.916016 z M 11.115234 12.943359 L 11.115234 13.916016 L 12.367188 13.916016 L 12.367188 19.371094 L 13.345703 19.371094 L 13.345703 12.943359 L 11.115234 12.943359 z M 17.912109 13.759766 C 18.716393 13.759766 19.123047 14.519966 19.123047 16.152344 C 19.123047 17.784722 18.716393 18.554688 17.912109 18.554688 C 17.099889 18.554688 16.695312 17.784722 16.695312 16.152344 C 16.695312 14.519966 17.099889 13.759766 17.912109 13.759766 z M 23.027344 13.759766 C 23.831627 13.759766 24.238281 14.519966 24.238281 16.152344 C 24.238281 17.784722 23.831627 18.554688 23.027344 18.554688 C 22.215123 18.554688 21.808594 17.784722 21.808594 16.152344 C 21.808594 14.519966 22.215123 13.759766 23.027344 13.759766 z M 27.746094 16.095703 C 27.259669 16.095703 26.884538 16.289212 26.679688 16.748047 L 26.679688 16.119141 L 26.050781 16.119141 L 26.050781 19.371094 L 26.679688 19.371094 L 26.679688 17.763672 C 26.679688 17.195231 26.9897 16.766567 27.498047 16.748047 C 27.929291 16.748047 28.189453 17.048229 28.189453 17.542969 L 28.189453 19.371094 L 28.824219 19.371094 L 28.824219 17.763672 C 28.824219 17.195231 29.12856 16.766567 29.630859 16.748047 C 30.062481 16.748047 30.326172 17.048229 30.326172 17.542969 L 30.326172 19.371094 L 30.962891 19.371094 L 30.962891 17.347656 C 30.962891 16.570963 30.558277 16.095703 29.884766 16.095703 C 29.348451 16.095703 28.957374 16.332701 28.769531 16.876953 C 28.631578 16.382213 28.27107 16.095703 27.746094 16.095703 z "
     transform="scale(26.458332)"
     id="path7" /></svg>