<?xml version="1.0" encoding="UTF-8"?>
<!DOCTYPE svg PUBLIC "-//W3C//DTD SVG 1.1//EN" "http://www.w3.org/Graphics/SVG/1.1/DTD/svg11.dtd">
<!-- Creator: CorelDRAW 2017 -->
<svg xmlns="http://www.w3.org/2000/svg" xml:space="preserve" width="8.47mm" height="8.47mm" version="1.1" style="shape-rendering:geometricPrecision; text-rendering:geometricPrecision; image-rendering:optimizeQuality; fill-rule:evenodd; clip-rule:evenodd"
viewBox="0 0 847 847"
 xmlns:xlink="http://www.w3.org/1999/xlink">
 <defs>
  <style type="text/css">
   <![CDATA[
    .fil1 {fill:black}
    .fil0 {fill:black;fill-rule:nonzero}
   ]]>
  </style>
 </defs>
 <g id="Layer_x0020_1">
  <metadata id="CorelCorpID_0Corel-Layer"/>
  <g id="_2401421655664">
   <path class="fil0" d="M143.49 298.54c35.9,0 65.97,12.03 90.15,36.05 24.18,24.02 36.3,53.61 36.3,88.73 0,34.84 -12.07,64.39 -36.19,88.63 -24.17,24.25 -53.58,36.39 -88.33,36.39 -35.15,0 -64.82,-12.09 -89,-36.23 -24.18,-24.13 -36.3,-53.34 -36.3,-87.63 0,-22.85 5.51,-44.01 16.53,-63.56 11.01,-19.48 26.06,-34.79 45.11,-45.83 19,-11.03 39.59,-16.55 61.73,-16.55zm1.05 23.18c-17.51,0 -34.15,4.58 -49.9,13.75 -15.7,9.16 -27.98,21.48 -36.84,37 -8.82,15.56 -13.23,32.85 -13.23,51.96 0,28.21 9.75,52.07 29.3,71.51 19.55,19.48 43.14,29.21 70.67,29.21 18.44,0 35.46,-4.48 51.1,-13.42 15.7,-8.94 27.92,-21.21 36.67,-36.72 8.77,-15.52 13.18,-32.74 13.18,-51.74 0,-18.88 -4.41,-35.95 -13.18,-51.19 -8.75,-15.23 -21.14,-27.45 -37.05,-36.61 -15.92,-9.17 -32.83,-13.75 -50.72,-13.75z"/>
   <polygon class="fil1" points="131.9,339.28 131.9,429.53 131.92,429.53 131.92,440.87 222.16,440.87 222.16,421.15 151.62,421.15 151.62,339.28 "/>
   <polygon class="fil0" points="294.09,342.45 294.09,368.17 327.21,368.17 327.21,512.54 353.09,512.54 353.09,342.45 "/>
   <path id="_1" class="fil0" d="M473.94 341.73c-37.28,0 -57.91,30.56 -57.91,85.64 0,55.33 20.63,85.9 57.91,85.9 37.05,0 57.67,-30.57 57.67,-85.9 0,-55.08 -20.62,-85.64 -57.67,-85.64zm0 22.32c21.28,0 32.02,20.13 32.02,63.32 0,43.19 -10.74,63.58 -32.02,63.58 -21.49,0 -32.23,-20.39 -32.23,-63.58 0,-43.19 10.74,-63.32 32.23,-63.32z"/>
   <path id="_2" class="fil0" d="M609.26 341.73c-37.29,0 -57.9,30.56 -57.9,85.64 0,55.33 20.61,85.9 57.9,85.9 37.07,0 57.68,-30.57 57.68,-85.9 0,-55.08 -20.61,-85.64 -57.68,-85.64zm0 22.32c21.28,0 32.02,20.13 32.02,63.32 0,43.19 -10.74,63.58 -32.02,63.58 -21.49,0 -32.24,-20.39 -32.24,-63.58 0,-43.19 10.75,-63.32 32.24,-63.32z"/>
   <path id="_3" class="fil0" d="M790.72 425.85c-14.19,0 -24.58,6.29 -29.55,20.69 -3.65,-13.09 -13.15,-20.69 -27.04,-20.69 -12.87,0 -22.8,5.16 -28.22,17.3l0 -16.66 -16.67 0 0 86.05 16.67 0 0 -42.54c0,-15.04 8.18,-26.36 21.63,-26.85 11.41,0 18.29,7.93 18.29,21.02l0 48.37 16.81 0 0 -42.54c0,-15.04 8.05,-26.36 21.34,-26.85 11.42,0 18.42,7.93 18.42,21.02l0 48.37 16.82 0 0 -53.54c0,-20.55 -10.68,-33.15 -28.5,-33.15z"/>
  </g>
 </g>
</svg>
